<?xml version="1.0" standalone="no"?>
<!DOCTYPE svg PUBLIC "-//W3C//DTD SVG 1.1//EN" "http://www.w3.org/Graphics/SVG/1.1/DTD/svg11.dtd" >
<svg xmlns="http://www.w3.org/2000/svg" xmlns:xlink="http://www.w3.org/1999/xlink" version="1.1">
<metadata></metadata>
<defs>
<font id="terpel_sansblack" horiz-adv-x="1241" >
<font-face units-per-em="2048" ascent="1638" descent="-410" />
<missing-glyph horiz-adv-x="409" />
<glyph horiz-adv-x="0" />
<glyph horiz-adv-x="682" />
<glyph unicode=" "  horiz-adv-x="409" />
<glyph unicode="&#x09;" horiz-adv-x="409" />
<glyph unicode="&#xa0;" horiz-adv-x="409" />
<glyph unicode="!" horiz-adv-x="655" d="M82 182q0 117 71.5 183.5t178.5 66.5q109 0 180.5 -66.5t71.5 -183.5t-71.5 -183.5t-180.5 -66.5q-107 0 -178.5 66.5t-71.5 183.5zM131 537h410v897h-410v-897z" />
<glyph unicode="&#x22;" horiz-adv-x="1255" d="M72 737h354v738h-354v-738zM606 737h355v738h-355v-738z" />
<glyph unicode="#" horiz-adv-x="1714" d="M92 322v286h238l35 207h-211v287h258l53 332h393l-53 -332h262l53 332h393l-53 -332h162v-287h-209l-35 -207h183v-286h-228l-53 -322h-393l53 322h-262l-53 -322h-394l54 322h-193zM723 608h262l35 207h-262z" />
<glyph unicode="$" horiz-adv-x="1144" d="M51 158l107 303q150 -109 358 -109q85 0 147 19t62 55q0 11 -7 22t-22 20.5t-29.5 17.5t-40 17t-42 14.5t-47 15.5t-43.5 14q-62 18 -110.5 38t-103 54.5t-90.5 77t-60 106.5t-24 142q0 144 72.5 234.5t194.5 133.5v203h418v-174q140 -23 258 -84l-105 -309 q-43 36 -142.5 62t-197.5 26q-149 0 -149 -60q0 -18 15.5 -33.5t44 -28t62.5 -23.5t78 -23q19 -5 29 -8q47 -14 78 -25t78.5 -31.5t79 -41t67.5 -53.5t57 -70t35.5 -88t14.5 -111q0 -150 -80 -250.5t-213 -147.5v-243h-418v215q-177 31 -332 123z" />
<glyph unicode="%" horiz-adv-x="1910" d="M61 1130q0 146 106.5 247.5t258.5 101.5t258.5 -101.5t106.5 -247.5q0 -145 -105 -245.5t-260 -100.5q-152 0 -258.5 100.5t-106.5 245.5zM338 0l776 1436h461l-778 -1436h-459zM360 1130q0 -32 19 -53.5t47 -21.5t47 21.5t19 53.5q0 34 -19 56t-47 22t-47 -22t-19 -56z M1120 301q0 145 106.5 245.5t258.5 100.5t258 -100.5t106 -245.5q0 -146 -104 -246t-260 -100q-152 0 -258.5 100.5t-106.5 245.5zM1419 301q0 -32 19 -54t47 -22t46.5 22t18.5 54t-18.5 55t-46.5 23t-47 -23t-19 -55z" />
<glyph unicode="&#x26;" horiz-adv-x="1445" d="M72 414q0 87 29 159t74 119.5t110 89.5q-109 159 -109 310q0 97 38.5 173t102.5 121.5t142.5 69t163.5 23.5q83 0 159 -26t138 -75.5t98.5 -131.5t36.5 -185h-338q0 164 -96 164q-38 0 -66.5 -26.5t-28.5 -74.5q0 -104 120 -244.5t362 -308.5q6 82 6 189l276 -25 q3 -185 -24 -329q70 -42 139 -80l-170 -291q-23 14 -81 48.5t-89 53.5q-150 -182 -442 -182q-254 0 -402.5 128t-148.5 331zM412 442q0 -91 63 -140.5t154 -49.5q100 0 176 55q-221 155 -340 268q-53 -56 -53 -133z" />
<glyph unicode="'" horiz-adv-x="548" d="M72 737h354v738h-354v-738z" />
<glyph unicode="(" horiz-adv-x="1013" d="M215.5 224.5q-57.5 369.5 0 738.5t218.5 634h416q-161 -265 -218.5 -634t0 -738.5t218.5 -634.5h-416q-161 265 -218.5 634.5z" />
<glyph unicode=")" horiz-adv-x="1013" d="M164 -410q161 265 218.5 634t0 738.5t-218.5 634.5h416q161 -265 218.5 -634.5t0 -738.5t-218.5 -634h-416z" />
<glyph unicode="*" horiz-adv-x="1126" d="M131 985v266q11 -2 90.5 -19.5t120.5 -21.5q-19 17 -43 35t-39 27.5t-49.5 31.5t-44.5 29l188 187q8 -13 27.5 -44.5t30.5 -48.5t28.5 -41t34.5 -43q-4 41 -21.5 120.5t-19.5 90.5h266q-2 -11 -19.5 -90.5t-21.5 -120.5q17 19 34.5 43t28.5 40.5t31.5 48.5t28.5 45 l187 -187q-14 -10 -56 -36.5t-69 -46t-51 -40.5q25 2 53.5 7t49 9.5t55 12.5t53.5 12v-266q-15 3 -52 11.5t-56 13t-48.5 9.5t-54.5 7q19 -17 43 -34.5t40 -28t49 -31t44 -27.5l-187 -188q-10 14 -36.5 56t-46 69t-40.5 51q2 -25 7 -53.5t9.5 -49t12.5 -55t12 -53.5h-266 q4 18 15.5 66.5t17.5 80.5t8 64q-40 -45 -121 -176l-188 188q131 81 176 121q-41 -4 -120.5 -21.5t-90.5 -19.5z" />
<glyph unicode="+" horiz-adv-x="1282" d="M180 350v373h269v281h417v-281h271v-373h-271v-280h-417v280h-269z" />
<glyph unicode="," horiz-adv-x="546" d="M70 -264l303 -51q124 284 116 712h-337q6 -85 7.5 -154t-4 -160t-27 -179.5t-58.5 -167.5z" />
<glyph unicode="-" horiz-adv-x="1034" d="M143 471v344h750v-344h-750z" />
<glyph unicode="." horiz-adv-x="552" d="M47 174q0 107 65 168t164 61t164.5 -61t65.5 -168t-65.5 -168t-164.5 -61t-164 61t-65 168z" />
<glyph unicode="/" horiz-adv-x="1345" d="M61 -410l711 2048h432l-710 -2048h-433z" />
<glyph unicode="0" horiz-adv-x="1286" d="M55 717q0 157 31.5 285.5t86 216t130 147t160.5 86.5t180 27q97 0 183 -27t161 -86.5t128.5 -147t84.5 -215.5t31 -286t-31 -286t-84.5 -215.5t-128.5 -147t-161 -86.5t-183 -27q-95 0 -180 27t-160.5 86.5t-130 147t-86 216t-31.5 285.5zM461 717q0 -206 45 -291.5 t135 -85.5t137 87t47 290q0 204 -46.5 290.5t-137.5 86.5q-58 0 -96.5 -34t-61 -119t-22.5 -224z" />
<glyph unicode="1" horiz-adv-x="944" d="M109 813v320h84q142 0 203 75t61 226h395v-1434h-416v813h-327z" />
<glyph unicode="2" horiz-adv-x="1216" d="M92 0v217q0 89 32.5 171.5t84.5 146t115 121.5t126 106.5t115 91.5t84.5 85.5t32.5 80.5q0 51 -50 79.5t-130 28.5q-147 0 -283 -92l-119 320q212 123 465 123q148 0 266.5 -48.5t189.5 -146t71 -227.5q0 -82 -29.5 -158.5t-77 -135.5t-104.5 -113t-114.5 -98t-105 -81.5 t-77 -72t-29.5 -62.5h580v-336h-1043z" />
<glyph unicode="3" horiz-adv-x="1146" d="M41 145l221 271q41 -52 104 -80.5t128 -28.5q78 0 132 41t54 121q0 72 -62.5 118t-193.5 46h-137v133l276 330h-403v338h870v-224l-266 -315q164 -56 248 -176t84 -270q0 -93 -37.5 -179.5t-107 -156.5t-180.5 -112t-247 -42q-132 0 -257.5 46.5t-225.5 139.5z" />
<glyph unicode="4" horiz-adv-x="1396" d="M102 207v242l707 985h324v-920h182v-307h-182v-207h-390v207h-641zM496 512h247v342z" />
<glyph unicode="5" horiz-adv-x="1212" d="M80 174l190 297q130 -137 293 -137q85 0 140 40.5t55 121.5q0 73 -46 115t-118 42q-47 0 -111 -22l-299 2l115 801h776v-349h-510l-24 -163q76 20 170 20q107 0 194 -40t141.5 -106.5t83.5 -149.5t29 -173q0 -97 -34.5 -186t-100.5 -162t-172.5 -116.5t-239.5 -43.5 q-143 0 -281 53t-251 156z" />
<glyph unicode="6" horiz-adv-x="1208" d="M33 485q-6 95 16.5 192t63.5 175q207 392 303 582h434l-201 -381h39q137 0 250.5 -74.5t176.5 -197.5t63 -267q0 -122 -45 -225.5t-123 -173.5t-183.5 -109t-224.5 -39q-148 0 -274.5 64.5t-206 184t-88.5 269.5zM446 516q0 -88 41 -145.5t115 -57.5q76 0 118 58t42 147 q0 102 -41 162.5t-117 60.5t-117 -61t-41 -164z" />
<glyph unicode="7" horiz-adv-x="1107" d="M31 1085v349h1036v-189l-549 -1245h-420l475 1085h-542z" />
<glyph unicode="8" d="M51 412q0 133 64.5 231.5t175.5 153.5q-162 123 -162 295q0 113 66 202t178.5 137t249.5 48t248.5 -48t177 -137t65.5 -202q0 -172 -162 -295q110 -57 174 -154.5t64 -230.5q0 -111 -47.5 -200t-128 -144t-181.5 -84t-212 -29t-211.5 29t-181.5 84t-129 144t-48 200z M471 455q0 -83 41 -131t109 -48q67 0 108 48.5t41 130.5q0 81 -41.5 130.5t-107.5 49.5q-68 0 -109 -49t-41 -131zM483 1024q0 -62 37.5 -104.5t100.5 -42.5q61 0 98 42.5t37 104.5q0 61 -37 103t-98 42q-62 0 -100 -42t-38 -103z" />
<glyph unicode="9" horiz-adv-x="1208" d="M31 920q0 163 77.5 288.5t207.5 191.5t290 66q148 0 274.5 -64.5t206.5 -184t89 -269.5q6 -95 -16 -191.5t-64 -174.5q-207 -392 -303 -582h-435l201 381h-39q-137 0 -250 74.5t-176 197.5t-63 267zM446 915q0 -102 41 -162.5t117 -60.5t117 61.5t41 164.5q0 88 -41 145 t-115 57q-76 0 -118 -58t-42 -147z" />
<glyph unicode=":" horiz-adv-x="696" d="M119 164q0 107 65 168t164 61t164.5 -61t65.5 -168t-65.5 -168.5t-164.5 -61.5t-164 61.5t-65 168.5zM119 852q0 107 65 168t164 61t164.5 -61t65.5 -168t-65.5 -168t-164.5 -61t-164 61t-65 168z" />
<glyph unicode=";" horiz-adv-x="694" d="M133 850q0 107 65 168t164 61t164.5 -61t65.5 -168t-65.5 -168t-164.5 -61t-164 61t-65 168zM139 -266l303 -51q125 286 117 712h-338q6 -85 7.5 -154t-4 -160t-27 -179.5t-58.5 -167.5z" />
<glyph unicode="&#x3c;" horiz-adv-x="1269" d="M129 352v367l883 299l69 -322l-598 -164l598 -178l-69 -321z" />
<glyph unicode="=" horiz-adv-x="1486" d="M102 227v346h1262v-346h-1262zM102 786v347h1262v-347h-1262z" />
<glyph unicode="&#x3e;" horiz-adv-x="1269" d="M219 354l598 178l-598 164l70 322l882 -299v-367l-882 -319z" />
<glyph unicode="?" horiz-adv-x="1087" d="M20 1391q221 90 451 90q115 0 214 -25t176 -74t121 -129t44 -184q0 -72 -22 -133.5t-57 -104t-77.5 -78t-85.5 -62.5t-78 -51t-57 -49.5t-22 -51.5h-375q0 66 21 120t55 90t75 65.5t82.5 52t75.5 43t55 46t21 54.5q0 54 -62.5 85t-158.5 31q-145 0 -273 -71zM199 174 q0 113 68.5 177.5t172.5 64.5t172 -64.5t68 -177.5q0 -112 -68 -176t-172 -64t-172.5 64t-68.5 176z" />
<glyph unicode="@" horiz-adv-x="1447" d="M55 530q0 142 53 268.5t142.5 216.5t213.5 142.5t261 52.5q181 0 335 -86t243.5 -233.5t89.5 -319.5q0 -161 -76.5 -273t-200.5 -112q-74 0 -133 42.5t-72 121.5q-26 -75 -88.5 -120.5t-158.5 -45.5q-140 0 -229 94.5t-89 247.5q0 158 94.5 253t229.5 95 q105 0 172.5 -55.5t72.5 -126.5q5 66 21 142h166q-37 -151 -37 -293q0 -236 102 -236q35 0 60 25.5t37 67t17 81t5 80.5q0 156 -75.5 281.5t-203 194.5t-280.5 69q-155 0 -284.5 -75t-205 -207t-75.5 -292q0 -119 45.5 -225t120.5 -180t175.5 -117t207.5 -43 q91 0 176.5 29.5t150.5 85.5l62 -84q-83 -66 -187.5 -101.5t-212.5 -35.5q-126 0 -243.5 50.5t-206 137.5t-142 213.5t-53.5 269.5zM575 528q0 -66 35.5 -105.5t100.5 -39.5q66 0 101.5 39t35.5 104q0 67 -35.5 107.5t-101.5 40.5q-64 0 -100 -40.5t-36 -105.5z" />
<glyph unicode="A" horiz-adv-x="1480" d="M31 2l481 1432h461l477 -1432l-424 -22l-72 237h-428l-71 -237zM618 524h246l-123 412z" />
<glyph unicode="B" horiz-adv-x="1359" d="M92 0v1434h610q125 0 226.5 -34.5t164.5 -92.5t96.5 -129t33.5 -148q0 -163 -109 -266q94 -60 144.5 -150.5t50.5 -189.5q0 -81 -32 -156t-93 -135.5t-158.5 -96.5t-218.5 -36h-715zM522 348h226q65 0 102 40t37 95q0 57 -37.5 99.5t-101.5 42.5h-226v-277zM522 809h154 q63 0 99 42t36 99q0 55 -35.5 95t-99.5 40h-154v-276z" />
<glyph unicode="C" horiz-adv-x="1339" d="M55 713q0 171 66.5 316.5t177.5 241t255 149t300 53.5q237 0 430 -125l-39 -355q-171 111 -342 111q-81 0 -156 -26.5t-133.5 -74.5t-93.5 -122t-35 -162q0 -173 122 -278t292 -105q162 0 342 94l43 -348q-198 -115 -430 -115q-126 0 -244 32.5t-218.5 96.5t-176 152.5 t-118 208t-42.5 256.5z" />
<glyph unicode="D" horiz-adv-x="1439" d="M92 0v1434h617q130 0 241 -39.5t189.5 -108t134.5 -159.5t83 -193.5t27 -210.5q0 -109 -27.5 -213.5t-84 -196.5t-135.5 -162t-189.5 -110.5t-238.5 -40.5h-617zM522 348h74q175 0 266.5 104.5t91.5 264.5q0 104 -37 185t-119.5 132t-201.5 51h-74v-737z" />
<glyph unicode="E" horiz-adv-x="1187" d="M92 0v1434h1014v-349h-584v-184h531v-348h-531v-205h572v-348h-1002z" />
<glyph unicode="F" horiz-adv-x="1155" d="M92 0v1434h1002v-349h-572v-184h516v-358h-516v-543h-430z" />
<glyph unicode="G" horiz-adv-x="1568" d="M55 705q0 174 66 320t177.5 243.5t260 152t313.5 54.5q255 0 494 -127l-39 -351q-213 109 -401 109q-194 0 -317.5 -105t-123.5 -299q0 -173 97.5 -268.5t253.5 -95.5q103 0 176.5 41.5t83.5 120.5h-273v327h635l2 -417q0 -106 14.5 -225t38.5 -185h-354q-16 98 -22 147 q-77 -80 -183.5 -120.5t-222.5 -40.5q-129 0 -250.5 51t-216.5 141.5t-152 228t-57 298.5z" />
<glyph unicode="H" horiz-adv-x="1579" d="M92 0v1434h430v-535h535v535h430v-1434h-430v510h-535v-510h-430z" />
<glyph unicode="I" horiz-adv-x="614" d="M92 0v1434h430v-1434h-430z" />
<glyph unicode="J" horiz-adv-x="1196" d="M82 72l76 360q154 -88 272 -92h10q112 0 180 88q70 93 70 277v729h430v-789q0 -157 -41.5 -283t-114.5 -207.5t-172.5 -130.5t-214.5 -58q-28 -2 -57 -2q-89 0 -185 20q-127 26 -253 88z" />
<glyph unicode="K" horiz-adv-x="1429" d="M92 0v1434h430v-459l451 465l446 -27l-493 -526l530 -860l-455 -50l-368 596l-111 -116v-457h-430z" />
<glyph unicode="L" horiz-adv-x="1079" d="M92 0v1434h430v-1086h506v-348h-936z" />
<glyph unicode="M" horiz-adv-x="1808" d="M92 0v1434h357l483 -836l512 836h272v-1434h-430v641l-311 -561h-150l-313 561v-641h-420z" />
<glyph unicode="N" horiz-adv-x="1490" d="M92 0v1434h334l557 -697v697h416v-1434h-334l-557 698v-698h-416z" />
<glyph unicode="O" horiz-adv-x="1626" d="M55 717q0 159 58 299.5t158.5 240.5t241 158t300.5 58q215 0 388.5 -98.5t271.5 -271.5t98 -386q0 -212 -98 -385t-271.5 -272t-388.5 -99q-159 0 -300 58t-241.5 158.5t-158.5 240.5t-58 299zM485 717q0 -74 20 -142t59 -123.5t103.5 -88.5t145.5 -33t145.5 33 t103.5 88.5t59 123.5t20 142q0 75 -20 143t-59 123.5t-103.5 88t-145.5 32.5t-145.5 -32.5t-103.5 -88t-59 -123.5t-20 -143z" />
<glyph unicode="P" horiz-adv-x="1282" d="M92 0v1434h615q125 0 226 -40.5t165.5 -110t98.5 -160t34 -193.5t-34 -194t-98.5 -161t-165.5 -110.5t-226 -40.5h-185v-424h-430zM522 772h127q74 0 113 43.5t39 114.5q0 69 -39 112t-113 43h-127v-313z" />
<glyph unicode="Q" horiz-adv-x="1656" d="M55 717q0 159 58 299.5t158.5 240.5t241 158t300.5 58q215 0 388.5 -98.5t271.5 -271.5t98 -386q0 -289 -174 -494l205 -252l-271 -219l-215 266q-142 -57 -303 -57q-159 0 -300 58t-241.5 158.5t-158.5 240.5t-58 299zM485 717q0 -74 20 -142t59 -123.5t103.5 -88.5 t145.5 -33t145.5 33t103.5 88.5t59 123.5t20 142q0 75 -20 143t-59 123.5t-103.5 88t-145.5 32.5t-145.5 -32.5t-103.5 -88t-59 -123.5t-20 -143z" />
<glyph unicode="R" horiz-adv-x="1314" d="M92 0v1434h621q126 0 227 -39t164.5 -106t97 -154t33.5 -187q0 -120 -47 -225.5t-137 -175.5l323 -520l-430 -50l-289 465h-133v-442h-430zM522 711h115q83 0 129.5 56t46.5 132q0 75 -46 129.5t-130 54.5h-115v-372z" />
<glyph unicode="S" horiz-adv-x="1308" d="M88 111l119 340q168 -123 401 -123q95 0 164.5 21t69.5 61q0 10 -4.5 20t-15.5 19t-22 16.5t-30 15.5t-33 14t-38 14t-38 12t-40.5 12t-38.5 12q-69 21 -123 43t-115 61t-101 86.5t-66.5 119.5t-26.5 159q0 102 35.5 183t93 132t137 84t160.5 46.5t169 13.5 q246 0 459 -109l-117 -346q-50 40 -159.5 69t-220.5 29q-168 0 -168 -65q0 -27 34.5 -50t77.5 -37.5t115 -35.5q19 -5 29 -8q52 -16 88 -28t88.5 -35t88 -46t75.5 -59.5t64 -78t40 -99t16 -123.5q0 -102 -35 -186t-94 -140.5t-139 -95t-167.5 -55.5t-182.5 -17 q-153 0 -296.5 43.5t-252.5 110.5z" />
<glyph unicode="T" horiz-adv-x="1327" d="M37 1065v369h1253v-369h-411v-1065h-430l-5 1065h-407z" />
<glyph unicode="U" horiz-adv-x="1335" d="M43 547v885h430v-904q-1 -92 55 -142q53 -48 134 -48h6q85 2 139.5 51t54.5 141v904l430 -2v-885q0 -133 -53.5 -244.5t-141.5 -183.5t-198.5 -112t-228.5 -40q-119 0 -231 40t-200.5 112t-142 183.5t-53.5 244.5z" />
<glyph unicode="V" horiz-adv-x="1570" d="M41 1413l438 43l303 -967l303 967l445 -43l-479 -1413h-531z" />
<glyph unicode="W" horiz-adv-x="2385" d="M41 1403l457 57l198 -1001l324 975h348l303 -973l217 999l457 -57l-391 -1403h-568l-202 758l-246 -758h-565z" />
<glyph unicode="X" horiz-adv-x="1439" d="M-10 10l389 695l-377 718l469 35l250 -532l252 532l465 -35l-377 -718l389 -695l-465 -35l-264 510l-264 -510z" />
<glyph unicode="Y" horiz-adv-x="1384" d="M20 1360l418 94l250 -516l254 516l422 -92l-451 -866v-496h-430v496z" />
<glyph unicode="Z" horiz-adv-x="1392" d="M72 0v365l645 700h-604v369h1151v-379l-600 -672h657v-383h-1249z" />
<glyph unicode="[" horiz-adv-x="995" d="M205 -410v2007h626v-348h-208v-1310h204v-349h-622z" />
<glyph unicode="\" horiz-adv-x="1345" d="M143 1638h432l711 -2048h-432z" />
<glyph unicode="]" horiz-adv-x="983" d="M162 1249v348h626v-2007h-622v349h205v1310h-209z" />
<glyph unicode="^" horiz-adv-x="1228" d="M158 993l291 484h360l291 -484l-314 -86l-157 320l-158 -320z" />
<glyph unicode="_" horiz-adv-x="1445" d="M123 0v-344h1200v344h-1200z" />
<glyph unicode="`" horiz-adv-x="1767" d="M39 1618q166 -267 227 -436h373q-42 179 -186 436h-414z" />
<glyph unicode="a" horiz-adv-x="1183" d="M41 291q0 103 55 178.5t139.5 111t184.5 35.5q161 0 264 -88v56q0 79 -68 119t-172 40q-127 0 -249 -69l-84 309q208 82 415 82q156 0 277 -49t192.5 -148.5t71.5 -236.5v-303q0 -143 66 -328h-390q-18 45 -30 98q-55 -68 -137 -103.5t-170 -35.5q-93 0 -174.5 37 t-136 114.5t-54.5 180.5zM418 291q0 -41 33 -60.5t77 -19.5q53 0 91 24t38 58q0 33 -36 55.5t-89 22.5q-46 0 -80 -19t-34 -61z" />
<glyph unicode="b" horiz-adv-x="1292" d="M72 0v1434h415v-498q121 121 293 121q89 0 170.5 -35t147 -101t104.5 -172t39 -237q0 -130 -38 -234.5t-102 -170t-146.5 -100t-174.5 -34.5q-99 0 -187 40t-151 118h-2v-131h-368zM487 512q0 -103 48 -161t120 -58q71 0 118.5 59t47.5 160q0 102 -45.5 160.5 t-116.5 58.5q-74 0 -123 -59t-49 -160z" />
<glyph unicode="c" horiz-adv-x="1007" d="M51 506q0 110 31 202t84.5 156.5t126.5 110t157.5 67t176.5 21.5q184 0 323 -74l-63 -307q-88 61 -201 61q-97 0 -156 -57.5t-59 -177.5q0 -118 58.5 -175t156.5 -57q115 0 209 64l61 -309q-142 -74 -329 -74q-116 0 -218 34t-183 100t-128 173t-47 242z" />
<glyph unicode="d" horiz-adv-x="1316" d="M51 512q0 131 39 237t106 172t152 101t180 35q161 0 277 -119v496h416v-1106q0 -152 45 -328h-365l-37 147q-60 -86 -149 -130t-193 -44q-92 0 -176 34.5t-150 100t-105.5 170t-39.5 234.5zM471 512q0 -101 47.5 -160t118.5 -59q72 0 120 58t48 161q0 101 -49 160 t-123 59q-71 0 -116.5 -58.5t-45.5 -160.5z" />
<glyph unicode="e" horiz-adv-x="1177" d="M51 516q0 129 45.5 235.5t122 175t175.5 105.5t208 37q110 0 208 -39t170.5 -110t114.5 -177t42 -233v-68h-658q47 -168 238 -168q134 0 287 78l83 -284q-213 -113 -442 -113q-170 0 -304 66.5t-212 195t-78 299.5zM475 635h275q-7 65 -40.5 99t-88.5 34 q-57 0 -94.5 -35.5t-51.5 -97.5z" />
<glyph unicode="f" horiz-adv-x="919" d="M20 733v291h150v16q0 128 44 227t118 157.5t164 88t190 29.5q73 0 148 -14l-68 -357q-37 13 -59 13q-102 0 -113 -160h225v-291h-225v-733h-424v733h-150z" />
<glyph unicode="g" horiz-adv-x="1183" d="M31 -131q0 168 225 264q-100 59 -100 154t94 149q-93 52 -137.5 127.5t-44.5 153.5q0 102 72 181.5t188 120t252 40.5q239 0 385 -146q-47 100 -47 156h305q-53 -80 -81 -172.5t-28 -177.5q0 -48 -13.5 -94t-49.5 -95t-91.5 -85t-148.5 -59.5t-211 -23.5q-47 0 -108 7 q-9 -15 -9 -27q0 -26 43 -40t153 -35q3 -1 5 -1l76 -14q405 -70 405 -342q0 -96 -50 -168.5t-135.5 -114t-186.5 -62t-215 -20.5q-254 0 -400.5 90.5t-146.5 233.5zM446 -100q0 -40 38 -66.5t110 -26.5q67 0 111.5 21.5t44.5 56.5q0 28 -41 49t-150 43q-15 3 -28 3 q-32 0 -54 -18q-31 -24 -31 -62zM471 707q0 -43 37.5 -69t89.5 -26t89.5 26t37.5 69t-37.5 68.5t-89.5 25.5t-89.5 -25.5t-37.5 -68.5z" />
<glyph unicode="h" horiz-adv-x="1212" d="M72 0v1434h415v-494q112 115 281 115q75 0 141 -26t120.5 -77.5t86 -138.5t31.5 -199v-614h-418v559q0 69 -35.5 104t-81.5 35q-54 0 -89.5 -45t-35.5 -121v-532h-415z" />
<glyph unicode="i" horiz-adv-x="585" d="M51 1389q0 109 68.5 168t173.5 59t173.5 -59t68.5 -168q0 -108 -68.5 -166t-173.5 -58t-173.5 58t-68.5 166zM78 0v1024h416v-1024h-416z" />
<glyph unicode="j" horiz-adv-x="610" d="M-86 -346q45 54 80 116.5t57.5 118.5t37.5 130t22.5 127t10.5 136t3 131t-1 137.5t-1 131.5v342h416v-453q0 -296 -2 -343q-11 -318 -105 -525q-50 -112 -129 -209zM76 1389q0 109 68 168t173 59t173.5 -59t68.5 -168q0 -108 -68.5 -166t-173.5 -58t-173 58t-68 166z" />
<glyph unicode="k" horiz-adv-x="1288" d="M72 0v1434h415v-729l328 319l426 -39l-395 -399l442 -568l-450 -55l-265 346l-86 -88v-221h-415z" />
<glyph unicode="l" horiz-adv-x="579" d="M82 0v1434h416v-1434h-416z" />
<glyph unicode="m" horiz-adv-x="1794" d="M37 1024h377q17 -62 30 -127q102 158 293 158q98 0 182.5 -46.5t133.5 -138.5q103 185 307 185q73 0 137.5 -25t117 -75t83.5 -134.5t31 -193.5v-627h-416v563q0 59 -27 88t-65 29q-50 0 -82.5 -38t-32.5 -110v-532h-416v563q0 59 -27 88t-65 29q-50 0 -82.5 -38 t-32.5 -110v-532h-415v696q0 83 -1 124.5t-8 99.5t-22 104z" />
<glyph unicode="n" horiz-adv-x="1208" d="M37 1024h377q12 -43 32 -129q57 80 140 120t178 40q75 0 141 -26t120.5 -77.5t86 -138.5t31.5 -199v-614h-416v561q0 69 -36.5 103t-82.5 34q-53 0 -89 -45t-36 -121v-532h-415v696q0 83 -1 124.5t-8 99.5t-22 104z" />
<glyph unicode="o" d="M51 512q0 112 33 206t88 158t129 108t154.5 64.5t165.5 20.5q106 0 205 -33.5t181.5 -99t132.5 -175.5t50 -249q0 -115 -31.5 -209t-85.5 -158t-127 -107.5t-154.5 -63t-170.5 -19.5q-85 0 -165.5 20.5t-154.5 64.5t-129 108t-88 158t-33 206zM467 512q0 -125 43 -182.5 t106 -57.5q65 0 111.5 59t46.5 181q0 123 -45.5 181.5t-110.5 58.5q-64 0 -107.5 -58t-43.5 -182z" />
<glyph unicode="p" horiz-adv-x="1333" d="M61 1024h365q24 -85 37 -150q60 90 151 136.5t197 46.5q92 0 176 -34.5t150 -100t105.5 -170t39.5 -234.5q0 -131 -39 -237t-106 -172t-152 -101t-180 -35q-170 0 -285 127l-4 -440h-416v1016q0 195 -39 348zM522 516q0 -101 51.5 -160t126.5 -59q71 0 116.5 58.5 t45.5 160.5q0 101 -47.5 160t-118.5 59q-73 0 -123.5 -58t-50.5 -161z" />
<glyph unicode="q" horiz-adv-x="1337" d="M51 518q0 130 39.5 234.5t105.5 170t150 100t176 34.5q106 0 197 -46.5t151 -136.5q13 65 37 150h365q-39 -153 -39 -348v-1016h-416l-4 440q-115 -127 -285 -127q-95 0 -180 35t-152 101t-106 172t-39 237zM471 516q0 -102 45.5 -160.5t116.5 -58.5q75 0 126.5 59 t51.5 160q0 103 -50.5 161t-123.5 58q-71 0 -118.5 -59t-47.5 -160z" />
<glyph unicode="r" horiz-adv-x="907" d="M37 1024h395q24 -86 39 -180q71 128 179 180q54 26 118 26q63 0 137 -26l-112 -377q-70 24 -122 26h-12q-43 0 -71 -13q-32 -15 -51 -47.5t-26 -71t-7 -90.5v-95v-356h-416v696q0 185 -51 328z" />
<glyph unicode="s" horiz-adv-x="1032" d="M51 45l74 324q72 -52 163 -77.5t167 -25.5q50 0 81 11.5t31 31.5q0 29 -80 47l-67 15q-63 14 -116 38t-102 62.5t-77.5 99t-28.5 136.5q0 114 68 194t181.5 117t262.5 37q177 0 348 -60l-96 -309q-42 29 -118 48.5t-140 19.5q-96 0 -96 -43q0 -18 23 -27t100 -26 q3 -1 5 -1t4.5 -1t4.5 -1l33 -8q149 -40 227 -129t78 -202q0 -174 -135 -264q-136 -91 -352 -91q-222 0 -443 84z" />
<glyph unicode="t" horiz-adv-x="923" d="M61 733v268q34 0 58.5 1.5t43.5 8.5t31.5 13t21 22t13 27.5t6.5 39t2.5 46t0.5 58.5v49h364v-242h223v-291h-223v-311q0 -69 27.5 -102t72.5 -33q51 0 117 39l86 -326q-158 -45 -291 -45q-197 0 -312.5 104.5t-115.5 321.5v352h-125z" />
<glyph unicode="u" horiz-adv-x="1226" d="M72 446v578h415v-471q0 -101 28.5 -151t76.5 -50q56 0 82 66t26 200v406h416v-696q0 -191 49 -328h-366q-32 87 -49 195q-56 -109 -140.5 -166.5t-189.5 -57.5q-54 0 -102.5 14.5t-94 50t-78.5 88.5t-53 135.5t-20 186.5z" />
<glyph unicode="v" horiz-adv-x="1220" d="M20 1008l443 39l147 -723l146 723l444 -39l-305 -1008h-571z" />
<glyph unicode="w" horiz-adv-x="1712" d="M20 1008l443 39l88 -711l182 688h244l184 -688l86 711l445 -39l-244 -1008h-469l-121 590l-127 -590h-469z" />
<glyph unicode="x" horiz-adv-x="1155" d="M10 0l252 512l-252 510l461 25l109 -338l104 338l461 -25l-252 -510l252 -512l-461 -23l-104 338l-109 -338z" />
<glyph unicode="y" horiz-adv-x="1210" d="M20 1008l445 39l149 -732l148 732l428 -39l-406 -1174q-66 -189 -163 -336l-355 158q97 123 135 293z" />
<glyph unicode="z" horiz-adv-x="1038" d="M31 0v96l372 637h-346v291h910v-104l-361 -629h391v-291h-966z" />
<glyph unicode="{" horiz-adv-x="1036" d="M205 408v327q62 0 88 27t26 108v365q0 114 57 199.5t146.5 125.5t203.5 35.5t222 -59.5l-86 -326q-25 15 -53.5 18t-51 -13t-22.5 -52v-198v-33q1 -29 0 -58.5t-1.5 -59.5t-4.5 -58.5t-9 -54t-15 -47t-23.5 -37t-32.5 -24.5t-43 -9v-25q32 0 55 -13.5t37 -45.5t22 -57 t11 -77t3.5 -75t0.5 -80v-33v-198q0 -36 22.5 -52.5t51 -13.5t53.5 18l86 -325q-108 -55 -222 -59.5t-203.5 35.5t-146.5 125.5t-57 199.5v364q0 81 -26 108.5t-88 27.5z" />
<glyph unicode="}" horiz-adv-x="1036" d="M90 -393l86 325q25 -15 53.5 -18t51 13.5t22.5 52.5v198v33q-1 29 0 58.5t1.5 59.5t4.5 58.5t9 54t15 47t23.5 37t32.5 24.5t43 9v25q-32 0 -55 13.5t-37 45.5t-22 57t-11 77t-3.5 75t-0.5 80v33v198q0 36 -22.5 52t-51 13t-53.5 -18l-86 326q108 55 222 59.5 t203.5 -35.5t146.5 -125.5t57 -199.5v-365q0 -81 26.5 -108t88.5 -27v-327q-62 0 -88.5 -27.5t-26.5 -108.5v-364q0 -114 -57 -199.5t-146.5 -125.5t-203.5 -35.5t-222 59.5z" />
<glyph unicode="&#xa1;" horiz-adv-x="655" d="M82 991q0 117 71.5 183.5t178.5 66.5q109 0 180.5 -66.5t71.5 -183.5t-71.5 -183.5t-180.5 -66.5q-107 0 -178.5 66.5t-71.5 183.5zM131 -260h410v897h-410v-897z" />
<glyph unicode="&#xa8;" horiz-adv-x="1515" d="M319 1389q0 90 55.5 138t143.5 48q86 0 141.5 -48t55.5 -138q0 -88 -55.5 -135.5t-141.5 -47.5q-88 0 -143.5 47t-55.5 136zM799 1389q0 90 55 138t141 48q88 0 143.5 -48t55.5 -138q0 -89 -55.5 -136t-143.5 -47q-86 0 -141 47t-55 136z" />
<glyph unicode="&#xa9;" horiz-adv-x="2080" d="M102 510q0 185 74.5 354t199.5 291.5t298.5 195t363.5 72.5q193 0 367.5 -72.5t299.5 -195t199 -291.5t74 -354q0 -187 -74 -357t-199 -293.5t-299.5 -196.5t-367.5 -73q-190 0 -363.5 73t-298.5 196.5t-199.5 294t-74.5 356.5zM276 516q0 -151 60.5 -290.5t163 -241.5 t244.5 -163t298 -61q205 0 381 103t278.5 277t102.5 376q0 149 -60.5 285.5t-163 235.5t-243.5 157.5t-295 58.5q-208 0 -384.5 -99t-279 -268.5t-102.5 -369.5zM641 518q0 -61 14.5 -119t48 -113.5t83.5 -97t127.5 -67t172.5 -25.5q125 0 244 68l-35 235q-105 -65 -196 -65 q-79 0 -128.5 45t-49.5 131q0 85 50.5 128.5t129.5 43.5q84 0 188 -59l31 233q-135 66 -254 66q-112 0 -197.5 -35.5t-133.5 -95t-71.5 -128.5t-23.5 -145z" />
<glyph unicode="&#xab;" horiz-adv-x="1945" d="M283 526l381 375h532l-393 -375l393 -374h-532zM987 526l381 375h533l-394 -375l394 -374h-533z" />
<glyph unicode="&#xad;" horiz-adv-x="1034" d="M143 471v344h750v-344h-750z" />
<glyph unicode="&#xae;" horiz-adv-x="880" d="M102 1106q0 139 99 237.5t239 98.5q139 0 238.5 -98.5t99.5 -237.5t-100 -239.5t-238 -100.5q-139 0 -238.5 100t-99.5 240zM164 1106q0 -116 81 -198.5t195 -82.5t196.5 83t82.5 198q0 114 -82.5 195t-196.5 81q-116 0 -196 -80t-80 -196zM340 942v322h109 q55 0 85.5 -30.5t30.5 -70.5q0 -34 -21 -60.5t-59 -35.5l80 -100l-45 -35l-108 131h-6v-121h-66zM406 1112h36q24 0 38 13.5t14 31.5q0 20 -14 34.5t-38 14.5h-36v-94z" />
<glyph unicode="&#xaf;" horiz-adv-x="1482" d="M61 1249h684v244h-684v-244z" />
<glyph unicode="&#xb0;" horiz-adv-x="600" d="M-10 1061q0 125 90.5 212t220.5 87q129 0 219 -87t90 -212t-89 -211t-220 -86q-130 0 -220.5 86t-90.5 211zM231 1061q0 -32 19.5 -54t50.5 -22q30 0 49 22t19 54t-19 54t-49 22q-31 0 -50.5 -22t-19.5 -54z" />
<glyph unicode="&#xb1;" d="M176 16v338h957v-338h-957zM176 713v372h268v281h418v-281h271v-372h-271v-281h-418v281h-268z" />
<glyph unicode="&#xb4;" horiz-adv-x="1779" d="M61 1182h373q60 165 228 436h-414q-145 -261 -187 -436z" />
<glyph unicode="&#xb6;" horiz-adv-x="1804" d="M133 885q1 101 34.5 194.5t97 170.5t165.5 126t229 56v2h416v-1659h-416v563q-127 7 -229 56t-166 126t-97.5 170.5t-33.5 194.5zM1239 -225v1659h416v-1659h-416z" />
<glyph unicode="&#xb7;" horiz-adv-x="880" d="M211 668q0 107 65 168t164 61t164.5 -61t65.5 -168t-65.5 -168.5t-164.5 -61.5t-164 61.5t-65 168.5z" />
<glyph unicode="&#xb8;" horiz-adv-x="585" d="M102 -395l35 106q52 -45 103 -45q38 0 62 19t24 47q0 29 -26.5 49t-68.5 20q-41 0 -67 -18l-2 113l43 104h141l-31 -84q88 -14 128 -66t40 -122q0 -83 -56 -138t-155 -55q-55 0 -100.5 19.5t-69.5 50.5z" />
<glyph unicode="&#xbb;" horiz-adv-x="1945" d="M135 152l393 374l-393 375h533l381 -375l-381 -374h-533zM840 152l393 374l-393 375h532l381 -375l-381 -374h-532z" />
<glyph unicode="&#xbf;" horiz-adv-x="1247" d="M221 362q0 72 22 133.5t57.5 104t78 78.5t85 63t78 51t57.5 49.5t22 51.5h374q0 -66 -21 -120t-55 -90t-75.5 -65.5t-82.5 -52t-75 -43t-55 -46t-21 -54.5q0 -54 63 -85.5t158 -31.5q143 0 273 72l123 -336q-221 -90 -451 -90q-116 0 -214.5 24.5t-175.5 73.5t-121 129 t-44 184zM567 1257q0 112 68 176t172 64t173 -64t69 -176q0 -113 -69 -177t-173 -64t-172 64t-68 177z" />
<glyph unicode="&#xc0;" horiz-adv-x="1480" d="M31 2l481 1432h461l477 -1432l-424 -22l-72 237h-428l-71 -237zM354 2028h414q143 -257 186 -437h-372q-61 167 -228 437zM618 524h246l-123 412z" />
<glyph unicode="&#xc1;" horiz-adv-x="1480" d="M31 2l481 1432h461l477 -1432l-424 -22l-72 237h-428l-71 -237zM547 1591q43 180 186 437h414q-165 -266 -227 -437h-373zM618 524h246l-123 412z" />
<glyph unicode="&#xc2;" horiz-adv-x="1480" d="M31 2l481 1432h461l477 -1432l-424 -22l-72 237h-428l-71 -237zM301 1591q40 45 87.5 105.5t98.5 151t48 141.5h434q-2 -39 25.5 -99.5t70 -121.5t76.5 -104t61 -73h-346l-104 174q-17 -28 -52 -86.5t-53 -87.5h-346zM618 524h246l-123 412z" />
<glyph unicode="&#xc3;" horiz-adv-x="1480" d="M31 2l481 1432h461l477 -1432l-424 -22l-72 237h-428l-71 -237zM264 1794q80 74 154 110.5t131 39.5t109.5 -9t98.5 -30.5t89.5 -29t91 0.5t94.5 51l187 -221q-76 -65 -148.5 -98t-130 -35.5t-111.5 7.5t-102 25.5t-93 23.5t-92 -4.5t-91 -51.5zM618 524h246l-123 412z " />
<glyph unicode="&#xc4;" horiz-adv-x="1480" d="M31 2l481 1432h461l477 -1432l-424 -22l-72 237h-428l-71 -237zM311 1790q0 90 55.5 138t143.5 48q86 0 141.5 -48t55.5 -138q0 -88 -55.5 -135t-141.5 -47q-88 0 -143.5 46.5t-55.5 135.5zM618 524h246l-123 412zM791 1790q0 90 55 138t141 48q88 0 143.5 -48t55.5 -138 q0 -89 -55.5 -135.5t-143.5 -46.5q-86 0 -141 47t-55 135z" />
<glyph unicode="&#xc5;" horiz-adv-x="1480" d="M31 2l481 1432h461l477 -1432l-424 -22l-72 237h-428l-71 -237zM440 1815q0 125 91 212t221 87q129 0 220 -86.5t91 -212.5q0 -125 -89.5 -211t-221.5 -86q-129 0 -220.5 86.5t-91.5 210.5zM618 524h246l-123 412zM682 1815q0 -31 19.5 -53.5t50.5 -22.5t50 22.5t19 53.5 q0 32 -19 54.5t-50 22.5t-50.5 -22.5t-19.5 -54.5z" />
<glyph unicode="&#xc6;" horiz-adv-x="2054" d="M31 0l764 1434h1177v-349h-526v-184h473v-348h-473v-205h514v-348h-944v193h-400l-98 -193h-487zM788 541h228v460z" />
<glyph unicode="&#xc7;" horiz-adv-x="1339" d="M55 713q0 171 66.5 316.5t177.5 241t255 149t300 53.5q237 0 430 -125l-39 -355q-171 111 -342 111q-81 0 -156 -26.5t-133.5 -74.5t-93.5 -122t-35 -162q0 -173 122 -278t292 -105q162 0 342 94l43 -348q-198 -115 -430 -115q-37 0 -57 2l-19 -53q88 -14 128 -66 t40 -122q0 -83 -56 -138t-155 -55q-55 0 -100.5 19.5t-69.5 50.5l35 106q52 -45 102 -45q38 0 62 19t24 47q0 29 -26 49t-68 20q-41 0 -67 -18l-2 113l37 92q-127 27 -236.5 88.5t-192.5 152t-130.5 215.5t-47.5 269z" />
<glyph unicode="&#xc8;" horiz-adv-x="1187" d="M92 0v1434h1014v-349h-584v-184h531v-348h-531v-205h572v-348h-1002zM223 2028h414q143 -257 186 -437h-372q-61 167 -228 437z" />
<glyph unicode="&#xc9;" horiz-adv-x="1187" d="M92 0v1434h1014v-349h-584v-184h531v-348h-531v-205h572v-348h-1002zM422 1591q43 180 186 437h414q-165 -266 -227 -437h-373z" />
<glyph unicode="&#xca;" horiz-adv-x="1187" d="M92 0v1434h1014v-349h-584v-184h531v-348h-531v-205h572v-348h-1002zM137 1591q40 45 87.5 105.5t98.5 151t48 141.5h434q-2 -39 25.5 -99.5t70 -121.5t76.5 -104t61 -73h-346l-104 174q-17 -28 -52 -86.5t-53 -87.5h-346z" />
<glyph unicode="&#xcb;" horiz-adv-x="1187" d="M92 0v1434h1014v-349h-584v-184h531v-348h-531v-205h572v-348h-1002zM147 1798q0 90 56 138.5t143 48.5q86 0 141.5 -48.5t55.5 -138.5q0 -88 -55.5 -135t-141.5 -47q-88 0 -143.5 46.5t-55.5 135.5zM627 1798q0 90 55 138.5t141 48.5q87 0 143 -48.5t56 -138.5 q0 -89 -55.5 -135.5t-143.5 -46.5q-86 0 -141 47t-55 135z" />
<glyph unicode="&#xcc;" horiz-adv-x="618" d="M-94 2028q165 -266 227 -437h373q-42 177 -187 437h-413zM109 0v1434h430v-1434h-430z" />
<glyph unicode="&#xcd;" horiz-adv-x="598" d="M92 0v1434h430v-1434h-430zM100 1591h373q62 171 227 437h-413q-145 -260 -187 -437z" />
<glyph unicode="&#xce;" horiz-adv-x="593" d="M-145 1591q27 30 61 73t76.5 104t70 121.5t25.5 99.5h434q-3 -51 48 -141.5t98.5 -151t87.5 -105.5h-346l-105 174q-18 -28 -52.5 -86.5t-51.5 -87.5h-346zM92 0v1434h430v-1434h-430z" />
<glyph unicode="&#xcf;" horiz-adv-x="567" d="M-145 1798q0 90 55.5 138.5t142.5 48.5q86 0 141.5 -48.5t55.5 -138.5q0 -88 -55.5 -135t-141.5 -47q-88 0 -143 46.5t-55 135.5zM80 0v1434h430v-1434h-430zM334 1798q0 90 55 138.5t141 48.5q87 0 143 -48.5t56 -138.5q0 -89 -55.5 -135.5t-143.5 -46.5q-86 0 -141 47 t-55 135z" />
<glyph unicode="&#xd0;" horiz-adv-x="1470" d="M18 551v295h109v588h616q130 0 241 -39.5t190 -108t135 -159.5t83 -193.5t27 -210.5q0 -109 -27.5 -213.5t-84 -196.5t-136 -162t-190 -110.5t-238.5 -40.5h-616v551h-109zM557 348h74q175 0 266.5 104.5t91.5 264.5q0 104 -37 185t-119.5 132t-201.5 51h-74v-239h217 v-295h-217v-203z" />
<glyph unicode="&#xd1;" horiz-adv-x="1490" d="M92 0v1434h334l557 -697v697h416v-1434h-334l-557 698v-698h-416zM215 1794q80 74 154 110.5t131 39.5t109.5 -9t98.5 -30.5t89.5 -29t91 0.5t94.5 51l186 -221q-76 -65 -148.5 -98t-130 -35.5t-111.5 7.5t-102 25.5t-93 23.5t-92 -4.5t-91 -51.5z" />
<glyph unicode="&#xd2;" horiz-adv-x="1626" d="M55 717q0 159 58 299.5t158.5 240.5t241 158t300.5 58q215 0 388.5 -98.5t271.5 -271.5t98 -386q0 -212 -98 -385t-271.5 -272t-388.5 -99q-159 0 -300 58t-241.5 158.5t-158.5 240.5t-58 299zM385 2028q165 -266 227 -437h373q-43 180 -186 437h-414zM485 717 q0 -74 20 -142t59 -123.5t103.5 -88.5t145.5 -33t145.5 33t103.5 88.5t59 123.5t20 142q0 75 -20 143t-59 123.5t-103.5 88t-145.5 32.5t-145.5 -32.5t-103.5 -88t-59 -123.5t-20 -143z" />
<glyph unicode="&#xd3;" horiz-adv-x="1626" d="M55 717q0 159 58 299.5t158.5 240.5t241 158t300.5 58q215 0 388.5 -98.5t271.5 -271.5t98 -386q0 -212 -98 -385t-271.5 -272t-388.5 -99q-159 0 -300 58t-241.5 158.5t-158.5 240.5t-58 299zM485 717q0 -74 20 -142t59 -123.5t103.5 -88.5t145.5 -33t145.5 33 t103.5 88.5t59 123.5t20 142q0 75 -20 143t-59 123.5t-103.5 88t-145.5 32.5t-145.5 -32.5t-103.5 -88t-59 -123.5t-20 -143zM578 1591h372q61 167 228 437h-414q-143 -257 -186 -437z" />
<glyph unicode="&#xd4;" horiz-adv-x="1626" d="M55 717q0 159 58 299.5t158.5 240.5t241 158t300.5 58q215 0 388.5 -98.5t271.5 -271.5t98 -386q0 -212 -98 -385t-271.5 -272t-388.5 -99q-159 0 -300 58t-241.5 158.5t-158.5 240.5t-58 299zM332 1591q27 30 61 73t76.5 104t70 121.5t25.5 99.5h434q-3 -51 48 -141.5 t98.5 -151t87.5 -105.5h-346l-105 174q-18 -28 -52 -86.5t-52 -87.5h-346zM485 717q0 -74 20 -142t59 -123.5t103.5 -88.5t145.5 -33t145.5 33t103.5 88.5t59 123.5t20 142q0 75 -20 143t-59 123.5t-103.5 88t-145.5 32.5t-145.5 -32.5t-103.5 -88t-59 -123.5t-20 -143z" />
<glyph unicode="&#xd5;" horiz-adv-x="1626" d="M55 717q0 159 58 299.5t158.5 240.5t241 158t300.5 58q215 0 388.5 -98.5t271.5 -271.5t98 -386q0 -212 -98 -385t-271.5 -272t-388.5 -99q-159 0 -300 58t-241.5 158.5t-158.5 240.5t-58 299zM295 1794l186 -221q44 39 91 51.5t92 4.5t93 -23.5t102 -25.5t111.5 -7.5 t130 35.5t148.5 98l-186 221q-47 -40 -94.5 -51t-91 -0.5t-89.5 29t-98.5 30.5t-109.5 9t-131 -39.5t-154 -110.5zM485 717q0 -74 20 -142t59 -123.5t103.5 -88.5t145.5 -33t145.5 33t103.5 88.5t59 123.5t20 142q0 75 -20 143t-59 123.5t-103.5 88t-145.5 32.5 t-145.5 -32.5t-103.5 -88t-59 -123.5t-20 -143z" />
<glyph unicode="&#xd6;" horiz-adv-x="1626" d="M55 717q0 159 58 299.5t158.5 240.5t241 158t300.5 58q215 0 388.5 -98.5t271.5 -271.5t98 -386q0 -212 -98 -385t-271.5 -272t-388.5 -99q-159 0 -300 58t-241.5 158.5t-158.5 240.5t-58 299zM344 1798q0 90 56 138.5t143 48.5q86 0 141 -48.5t55 -138.5q0 -88 -55 -135 t-141 -47q-88 0 -143.5 46.5t-55.5 135.5zM485 717q0 -74 20 -142t59 -123.5t103.5 -88.5t145.5 -33t145.5 33t103.5 88.5t59 123.5t20 142q0 75 -20 143t-59 123.5t-103.5 88t-145.5 32.5t-145.5 -32.5t-103.5 -88t-59 -123.5t-20 -143zM823 1798q0 90 55.5 138.5 t141.5 48.5q87 0 143 -48.5t56 -138.5q0 -89 -55.5 -135.5t-143.5 -46.5q-86 0 -141.5 47t-55.5 135z" />
<glyph unicode="&#xd7;" horiz-adv-x="1376" d="M201 469l219 213l-215 211l295 266l202 -198l207 200l295 -266l-217 -211l215 -211l-297 -264l-200 197l-207 -201z" />
<glyph unicode="&#xd8;" horiz-adv-x="1626" d="M55 717q0 159 58 299.5t158.5 240.5t241 158t300.5 58q13 0 86 -5l62 170h415l-110 -305q143 -103 224 -263.5t81 -352.5q0 -212 -98 -385t-271.5 -272t-388.5 -99h-25l-57 -166h-416l97 275q-165 98 -261 268.5t-96 378.5zM485 717q0 -74 20 -142t59 -123.5t103.5 -88.5 t145.5 -33t145.5 33t103.5 88.5t59 123.5t20 142q0 75 -20 143t-59 123.5t-103.5 88t-145.5 32.5t-145.5 -32.5t-103.5 -88t-59 -123.5t-20 -143z" />
<glyph unicode="&#xd9;" horiz-adv-x="1335" d="M43 547v885h430v-904q0 -93 55.5 -142.5t139.5 -47.5q85 2 139.5 51t54.5 141v904l430 -2v-885q0 -133 -53.5 -244.5t-141.5 -183.5t-198.5 -112t-228.5 -40q-119 0 -231 40t-200.5 112t-142 183.5t-53.5 244.5zM242 2028q165 -266 227 -437h373q-42 177 -187 437h-413z " />
<glyph unicode="&#xda;" horiz-adv-x="1335" d="M43 547v885h430v-904q0 -93 55.5 -142.5t139.5 -47.5q85 2 139.5 51t54.5 141v904l430 -2v-885q0 -133 -53.5 -244.5t-141.5 -183.5t-198.5 -112t-228.5 -40q-119 0 -231 40t-200.5 112t-142 183.5t-53.5 244.5zM475 1591h373q62 171 227 437h-413q-145 -260 -187 -437z " />
<glyph unicode="&#xdb;" horiz-adv-x="1335" d="M43 547v885h430v-904q0 -93 55.5 -142.5t139.5 -47.5q85 2 139.5 51t54.5 141v904l430 -2v-885q0 -133 -53.5 -244.5t-141.5 -183.5t-198.5 -112t-228.5 -40q-119 0 -231 40t-200.5 112t-142 183.5t-53.5 244.5zM213 1591q27 30 61 73t76.5 104t70 121.5t25.5 99.5h435 q-2 -39 25.5 -99.5t70 -121.5t76.5 -104t61 -73h-346l-104 174q-18 -28 -52.5 -86.5t-52.5 -87.5h-346z" />
<glyph unicode="&#xdc;" horiz-adv-x="1335" d="M43 547v885h430v-904q0 -93 55.5 -142.5t139.5 -47.5q85 2 139.5 51t54.5 141v904l430 -2v-885q0 -133 -53.5 -244.5t-141.5 -183.5t-198.5 -112t-228.5 -40q-119 0 -231 40t-200.5 112t-142 183.5t-53.5 244.5zM225 1798q0 90 56 138.5t143 48.5q86 0 141.5 -48.5 t55.5 -138.5q0 -88 -55.5 -135t-141.5 -47q-88 0 -143.5 46.5t-55.5 135.5zM705 1798q0 90 55 138.5t141 48.5q87 0 143 -48.5t56 -138.5q0 -89 -55.5 -135.5t-143.5 -46.5q-86 0 -141 47t-55 135z" />
<glyph unicode="&#xdd;" horiz-adv-x="1384" d="M20 1360l418 94l250 -516l254 516l422 -92l-451 -866v-496h-430v496zM485 1608h373q61 169 227 436h-413q-145 -261 -187 -436z" />
<glyph unicode="&#xde;" horiz-adv-x="1165" d="M57 0v1434h430v-177h218q115 0 207 -44.5t149 -118.5t87 -165t30 -190q0 -100 -30 -192.5t-87 -166.5t-149 -118.5t-207 -44.5h-218v-217h-430zM487 551h93q72 0 110.5 54.5t38.5 129.5t-40 132t-109 57h-93v-373z" />
<glyph unicode="&#xdf;" horiz-adv-x="1423" d="M92 0v897q0 125 33.5 226.5t88.5 167t129 109.5t150.5 62.5t157.5 18.5q96 0 181.5 -25t152.5 -72.5t106 -124t39 -172.5q0 -66 -20 -123.5t-39.5 -101.5t-19.5 -78t17.5 -65t46 -56.5t63 -52.5t68.5 -58t62.5 -66t46 -84.5t17.5 -106.5q0 -155 -114.5 -245.5 t-286.5 -90.5q-213 0 -416 113l90 313q61 -42 133.5 -66t128.5 -24q68 0 68 45q0 27 -28.5 53.5t-69.5 53.5t-82.5 61t-70 90.5t-28.5 128.5q0 63 24.5 138.5t24.5 113.5q0 64 -33.5 98.5t-82.5 34.5q-48 0 -82.5 -35.5t-34.5 -101.5v-975h-420z" />
<glyph unicode="&#xe0;" horiz-adv-x="1183" d="M41 291q0 103 55 178.5t139.5 111t184.5 35.5q161 0 264 -88v56q0 79 -68 119t-172 40q-127 0 -249 -69l-84 309q208 82 415 82q156 0 277 -49t192.5 -148.5t71.5 -236.5v-303q0 -143 66 -328h-390q-18 45 -30 98q-55 -68 -137 -103.5t-170 -35.5q-93 0 -174.5 37 t-136 114.5t-54.5 180.5zM195 1618h413q145 -261 187 -436h-373q-61 169 -227 436zM418 291q0 -41 33 -60.5t77 -19.5q53 0 91 24t38 58q0 33 -36 55.5t-89 22.5q-46 0 -80 -19t-34 -61z" />
<glyph unicode="&#xe1;" horiz-adv-x="1183" d="M41 291q0 103 55 178.5t139.5 111t184.5 35.5q161 0 264 -88v56q0 79 -68 119t-172 40q-127 0 -249 -69l-84 309q208 82 415 82q156 0 277 -49t192.5 -148.5t71.5 -236.5v-303q0 -143 66 -328h-390q-18 45 -30 98q-55 -68 -137 -103.5t-170 -35.5q-93 0 -174.5 37 t-136 114.5t-54.5 180.5zM360 1182q42 175 187 436h414q-168 -271 -228 -436h-373zM418 291q0 -41 33 -60.5t77 -19.5q53 0 91 24t38 58q0 33 -36 55.5t-89 22.5q-46 0 -80 -19t-34 -61z" />
<glyph unicode="&#xe2;" horiz-adv-x="1183" d="M41 291q0 103 55 178.5t139.5 111t184.5 35.5q161 0 264 -88v56q0 79 -68 119t-172 40q-127 0 -249 -69l-84 309q208 82 415 82q156 0 277 -49t192.5 -148.5t71.5 -236.5v-303q0 -143 66 -328h-390q-18 45 -30 98q-55 -68 -137 -103.5t-170 -35.5q-93 0 -174.5 37 t-136 114.5t-54.5 180.5zM141 1182q27 30 61 72.5t77 103.5t70.5 121.5t25.5 99.5h434q-2 -39 25.5 -99.5t70 -121t76.5 -103.5t61 -73h-346l-104 174q-18 -28 -53 -86.5t-52 -87.5h-346zM418 291q0 -41 33 -60.5t77 -19.5q53 0 91 24t38 58q0 33 -36 55.5t-89 22.5 q-46 0 -80 -19t-34 -61z" />
<glyph unicode="&#xe3;" horiz-adv-x="1183" d="M41 291q0 103 55 178.5t139.5 111t184.5 35.5q161 0 264 -88v56q0 79 -68 119t-172 40q-127 0 -249 -69l-84 309q208 82 415 82q156 0 277 -49t192.5 -148.5t71.5 -236.5v-303q0 -143 66 -328h-390q-18 45 -30 98q-55 -68 -137 -103.5t-170 -35.5q-93 0 -174.5 37 t-136 114.5t-54.5 180.5zM104 1384q80 74 154 110.5t131 39.5t109.5 -9t98.5 -30t89.5 -28.5t91 0.5t94.5 51l187 -222q-76 -65 -148.5 -98t-130 -35.5t-111.5 7.5t-102 25.5t-93 23.5t-92 -4.5t-91 -51.5zM418 291q0 -41 33 -60.5t77 -19.5q53 0 91 24t38 58q0 33 -36 55.5 t-89 22.5q-46 0 -80 -19t-34 -61z" />
<glyph unicode="&#xe4;" horiz-adv-x="1183" d="M41 291q0 103 55 178.5t139.5 111t184.5 35.5q161 0 264 -88v56q0 79 -68 119t-172 40q-127 0 -249 -69l-84 309q208 82 415 82q156 0 277 -49t192.5 -148.5t71.5 -236.5v-303q0 -143 66 -328h-390q-18 45 -30 98q-55 -68 -137 -103.5t-170 -35.5q-93 0 -174.5 37 t-136 114.5t-54.5 180.5zM154 1389q0 90 55.5 138t142.5 48q86 0 141.5 -48t55.5 -138q0 -88 -55.5 -135.5t-141.5 -47.5q-87 0 -142.5 47t-55.5 136zM418 291q0 -41 33 -60.5t77 -19.5q53 0 91 24t38 58q0 33 -36 55.5t-89 22.5q-46 0 -80 -19t-34 -61zM633 1389 q0 90 55 138t141 48q88 0 143.5 -48t55.5 -138q0 -89 -55.5 -136t-143.5 -47q-86 0 -141 47t-55 136z" />
<glyph unicode="&#xe5;" horiz-adv-x="1183" d="M41 291q0 103 55 178.5t139.5 111t184.5 35.5q161 0 264 -88v56q0 79 -68 119t-172 40q-127 0 -249 -69l-84 309q208 82 415 82q156 0 277 -49t192.5 -148.5t71.5 -236.5v-303q0 -143 66 -328h-390q-18 45 -30 98q-55 -68 -137 -103.5t-170 -35.5q-93 0 -174.5 37 t-136 114.5t-54.5 180.5zM281 1405q0 126 91 212.5t220 86.5t220 -86.5t91 -212.5q0 -125 -89.5 -211t-221.5 -86q-129 0 -220 86.5t-91 210.5zM418 291q0 -41 33 -60.5t77 -19.5q53 0 91 24t38 58q0 33 -36 55.5t-89 22.5q-46 0 -80 -19t-34 -61zM522 1405 q0 -31 19.5 -53.5t50.5 -22.5t50.5 22.5t19.5 53.5q0 32 -19.5 55t-50.5 23t-50.5 -23t-19.5 -55z" />
<glyph unicode="&#xe6;" horiz-adv-x="1705" d="M41 293q0 77 30.5 140t81.5 102t115 60t133 21q147 0 256 -86v54q0 74 -75 121t-176 47q-57 0 -120 -16.5t-110 -47.5l-86 273q229 90 402 90q114 0 212 -35.5t166 -95.5q156 131 334 131q85 0 165 -32.5t146.5 -94t104.5 -162.5t33 -225l-2 -52h-613q36 -106 95.5 -155 t156.5 -49q121 0 295 77l70 -272q-168 -113 -367 -113q-127 0 -235 48.5t-183 140.5q-66 -103 -179.5 -153t-235.5 -50q-179 0 -296.5 88.5t-117.5 245.5zM420 301q0 -46 34.5 -68t82.5 -22q54 0 93.5 25.5t39.5 66.5q0 40 -37.5 64t-91.5 24q-50 0 -85.5 -21.5t-35.5 -68.5 zM1044 633h269q-6 68 -42.5 104.5t-84.5 36.5q-51 0 -92 -37.5t-50 -103.5z" />
<glyph unicode="&#xe7;" horiz-adv-x="1007" d="M51 506q0 110 31 202t84.5 156.5t126.5 110t157.5 67t176.5 21.5q184 0 323 -74l-63 -307q-88 61 -201 61q-97 0 -156 -57.5t-59 -177.5q0 -118 58.5 -175t156.5 -57q115 0 209 64l61 -309q-142 -74 -329 -74h-2l-15 -41q88 -14 128 -66t40 -122q0 -83 -56 -138t-155 -55 q-55 0 -100.5 19.5t-69.5 50.5l35 106q52 -45 103 -45q38 0 62 19t24 47q0 29 -26.5 49t-68.5 20q-41 0 -67 -18l-2 113l30 73q-93 18 -170.5 60.5t-137.5 108t-94 160t-34 208.5z" />
<glyph unicode="&#xe8;" horiz-adv-x="1185" d="M51 516q0 129 45.5 235.5t122 175t175.5 105.5t208 37q110 0 208 -39t170.5 -110t114.5 -177t42 -233v-68h-658q47 -168 238 -168q134 0 287 78l83 -284q-213 -113 -442 -113q-170 0 -304 66.5t-212 195t-78 299.5zM213 1618h414q144 -257 186 -436h-373 q-61 169 -227 436zM475 635h275q-7 65 -40.5 99t-88.5 34q-57 0 -94.5 -35.5t-51.5 -97.5z" />
<glyph unicode="&#xe9;" horiz-adv-x="1185" d="M51 516q0 129 45.5 235.5t122 175t175.5 105.5t208 37q110 0 208 -39t170.5 -110t114.5 -177t42 -233v-68h-658q47 -168 238 -168q134 0 287 78l83 -284q-213 -113 -442 -113q-170 0 -304 66.5t-212 195t-78 299.5zM422 1182q42 179 186 436h414q-166 -267 -227 -436 h-373zM475 635h275q-7 65 -40.5 99t-88.5 34q-57 0 -94.5 -35.5t-51.5 -97.5z" />
<glyph unicode="&#xea;" horiz-adv-x="1185" d="M51 516q0 129 45.5 235.5t122 175t175.5 105.5t208 37q110 0 208 -39t170.5 -110t114.5 -177t42 -233v-68h-658q47 -168 238 -168q134 0 287 78l83 -284q-213 -113 -442 -113q-170 0 -304 66.5t-212 195t-78 299.5zM154 1182q27 30 61 73t76.5 103.5t70 121t25.5 99.5 h434q-2 -39 25.5 -99.5t70.5 -121.5t77 -103.5t61 -72.5h-346l-105 174q-17 -28 -52 -86.5t-52 -87.5h-346zM475 635h275q-7 65 -40.5 99t-88.5 34q-57 0 -94.5 -35.5t-51.5 -97.5z" />
<glyph unicode="&#xeb;" horiz-adv-x="1185" d="M51 516q0 129 45.5 235.5t122 175t175.5 105.5t208 37q110 0 208 -39t170.5 -110t114.5 -177t42 -233v-68h-658q47 -168 238 -168q134 0 287 78l83 -284q-213 -113 -442 -113q-170 0 -304 66.5t-212 195t-78 299.5zM145 1389q0 90 55.5 138t143.5 48q86 0 141.5 -48 t55.5 -138q0 -88 -55.5 -135.5t-141.5 -47.5q-88 0 -143.5 47t-55.5 136zM475 635h275q-7 65 -40.5 99t-88.5 34q-57 0 -94.5 -35.5t-51.5 -97.5zM625 1389q0 90 55 138t141 48q88 0 143.5 -48t55.5 -138q0 -89 -55.5 -136t-143.5 -47q-86 0 -141 47t-55 136z" />
<glyph unicode="&#xec;" horiz-adv-x="483" d="M-119 1618q168 -271 228 -436h372q-42 179 -186 436h-414zM70 0v1024h417v-1024h-417z" />
<glyph unicode="&#xed;" horiz-adv-x="585" d="M72 0v1024h415v-1024h-415zM94 1182h373q27 75 67 154.5t63.5 119t74.5 121.5h-414q-59 -106 -98.5 -195t-65.5 -200z" />
<glyph unicode="&#xee;" horiz-adv-x="499" d="M-201 1182q27 30 61 72.5t77 103.5t70.5 121.5t25.5 99.5h434q-2 -39 25.5 -99.5t70 -121t76.5 -103.5t61 -73h-346l-104 174q-17 -28 -52 -86.5t-53 -87.5h-346zM41 0v1024h418v-1024h-418z" />
<glyph unicode="&#xef;" horiz-adv-x="499" d="M-100 1315q0 72 44 110.5t113 38.5t113.5 -38.5t44.5 -110.5q0 -71 -44.5 -108.5t-113.5 -37.5t-113 37.5t-44 108.5zM41 0v1024h418v-1024h-418zM283 1315q0 72 44 110.5t113 38.5t113.5 -38.5t44.5 -110.5q0 -71 -44.5 -108.5t-113.5 -37.5t-113 37.5t-44 108.5z" />
<glyph unicode="&#xf0;" horiz-adv-x="1228" d="M78 518q0 147 66.5 270t184 197.5t261.5 81.5h20l-59 100l-254 -53l-33 160l201 43l-68 117h385l27 -45l211 45l33 -160l-154 -33q152 -253 199 -354q82 -184 82 -344q3 -134 -38 -245.5t-114.5 -185t-174 -113.5t-216.5 -40q-160 0 -289 77t-199.5 204.5t-70.5 277.5z M459 520q0 -102 51 -155.5t121 -53.5t121 53.5t51 155.5q0 100 -51 152.5t-121 52.5t-121 -52.5t-51 -152.5z" />
<glyph unicode="&#xf1;" horiz-adv-x="1208" d="M37 1024h377q12 -43 32 -129q57 80 140 120t178 40q75 0 141 -26t120.5 -77.5t86 -138.5t31.5 -199v-614h-416v561q0 69 -36.5 103t-82.5 34q-53 0 -89 -45t-36 -121v-532h-415v696q0 83 -1 124.5t-8 99.5t-22 104zM141 1386q80 74 154 110.5t131 39.5t109.5 -9t98.5 -30 t89.5 -28.5t91 0.5t94.5 51l187 -222q-76 -65 -148.5 -98t-130 -35.5t-111.5 7.5t-102 25.5t-93 23.5t-92 -4.5t-91 -51.5z" />
<glyph unicode="&#xf2;" d="M51 512q0 112 33 206t88 158t129 108t154.5 64.5t165.5 20.5q106 0 205 -33.5t181.5 -99t132.5 -175.5t50 -249q0 -115 -31.5 -209t-85.5 -158t-127 -107.5t-154.5 -63t-170.5 -19.5q-85 0 -165.5 20.5t-154.5 64.5t-129 108t-88 158t-33 206zM252 1618 q166 -267 227 -436h373q-42 179 -186 436h-414zM467 512q0 -125 43 -182.5t106 -57.5q65 0 111.5 59t46.5 181q0 123 -45.5 181.5t-110.5 58.5q-64 0 -107.5 -58t-43.5 -182z" />
<glyph unicode="&#xf3;" d="M51 512q0 112 33 206t88 158t129 108t154.5 64.5t165.5 20.5q106 0 205 -33.5t181.5 -99t132.5 -175.5t50 -249q0 -115 -31.5 -209t-85.5 -158t-127 -107.5t-154.5 -63t-170.5 -19.5q-85 0 -165.5 20.5t-154.5 64.5t-129 108t-88 158t-33 206zM416 1182h372 q60 165 228 436h-414q-144 -257 -186 -436zM467 512q0 -125 43 -182.5t106 -57.5q65 0 111.5 59t46.5 181q0 123 -45.5 181.5t-110.5 58.5q-64 0 -107.5 -58t-43.5 -182z" />
<glyph unicode="&#xf4;" d="M51 512q0 112 33 206t88 158t129 108t154.5 64.5t165.5 20.5q106 0 205 -33.5t181.5 -99t132.5 -175.5t50 -249q0 -115 -31.5 -209t-85.5 -158t-127 -107.5t-154.5 -63t-170.5 -19.5q-85 0 -165.5 20.5t-154.5 64.5t-129 108t-88 158t-33 206zM170 1182q27 30 61 73 t76.5 103.5t70 121t25.5 99.5h435q-2 -39 25.5 -99.5t70 -121t76.5 -103.5t61 -73h-346l-104 174q-17 -28 -52 -86.5t-53 -87.5h-346zM467 512q0 -125 43 -182.5t106 -57.5q65 0 111.5 59t46.5 181q0 123 -45.5 181.5t-110.5 58.5q-64 0 -107.5 -58t-43.5 -182z" />
<glyph unicode="&#xf5;" d="M51 512q0 112 33 206t88 158t129 108t154.5 64.5t165.5 20.5q106 0 205 -33.5t181.5 -99t132.5 -175.5t50 -249q0 -115 -31.5 -209t-85.5 -158t-127 -107.5t-154.5 -63t-170.5 -19.5q-85 0 -165.5 20.5t-154.5 64.5t-129 108t-88 158t-33 206zM133 1384l186 -221 q44 39 91 51.5t92 4.5t93 -23.5t102 -25.5t111.5 -7.5t130 35.5t148.5 98l-186 222q-47 -40 -94.5 -51t-91 -0.5t-89.5 28.5t-98.5 30t-109.5 9t-131 -39.5t-154 -110.5zM467 512q0 -125 43 -182.5t106 -57.5q65 0 111.5 59t46.5 181q0 123 -45.5 181.5t-110.5 58.5 q-64 0 -107.5 -58t-43.5 -182z" />
<glyph unicode="&#xf6;" d="M51 512q0 112 33 206t88 158t129 108t154.5 64.5t165.5 20.5q106 0 205 -33.5t181.5 -99t132.5 -175.5t50 -249q0 -115 -31.5 -209t-85.5 -158t-127 -107.5t-154.5 -63t-170.5 -19.5q-85 0 -165.5 20.5t-154.5 64.5t-129 108t-88 158t-33 206zM182 1389q0 90 55.5 138 t143.5 48q86 0 141.5 -48t55.5 -138q0 -88 -55.5 -135.5t-141.5 -47.5q-88 0 -143.5 47t-55.5 136zM467 512q0 -125 43 -182.5t106 -57.5q65 0 111.5 59t46.5 181q0 123 -45.5 181.5t-110.5 58.5q-64 0 -107.5 -58t-43.5 -182zM662 1389q0 90 55 138t141 48q88 0 143.5 -48 t55.5 -138q0 -89 -55.5 -136t-143.5 -47q-86 0 -141 47t-55 136z" />
<glyph unicode="&#xf7;" horiz-adv-x="1331" d="M137 522v316h1037v-316h-1037zM451 256q0 85 59.5 145t144.5 60t145 -60t60 -145t-60 -145t-145 -60t-144.5 60t-59.5 145zM451 1104q0 85 59.5 145t144.5 60t145 -60t60 -145t-60 -145t-145 -60t-144.5 60t-59.5 145z" />
<glyph unicode="&#xf8;" d="M51 512q0 112 33 206t88 158t129 108t154.5 64.5t165.5 20.5q23 0 73 -4l25 63h414l-99 -217q156 -149 156 -399q0 -115 -31.5 -209t-85.5 -158t-127 -107.5t-154.5 -63t-170.5 -19.5q-49 0 -95 6l-37 -82h-415l116 250q-139 149 -139 383zM467 512q0 -125 43 -182.5 t106 -57.5q65 0 111.5 59t46.5 181q0 123 -45.5 181.5t-110.5 58.5q-64 0 -107.5 -58t-43.5 -182z" />
<glyph unicode="&#xf9;" horiz-adv-x="1226" d="M72 446v578h415v-471q0 -101 28.5 -151t76.5 -50q56 0 82 66t26 200v406h416v-696q0 -191 49 -328h-366q-32 87 -49 195q-56 -109 -140.5 -166.5t-189.5 -57.5q-54 0 -102.5 14.5t-94 50t-78.5 88.5t-53 135.5t-20 186.5zM221 1618h414q144 -257 186 -436h-372 q-60 165 -228 436z" />
<glyph unicode="&#xfa;" horiz-adv-x="1226" d="M72 446v578h415v-471q0 -101 28.5 -151t76.5 -50q56 0 82 66t26 200v406h416v-696q0 -191 49 -328h-366q-32 87 -49 195q-56 -109 -140.5 -166.5t-189.5 -57.5q-54 0 -102.5 14.5t-94 50t-78.5 88.5t-53 135.5t-20 186.5zM451 1182q42 179 186 436h414 q-168 -271 -228 -436h-372z" />
<glyph unicode="&#xfb;" horiz-adv-x="1226" d="M72 446v578h415v-471q0 -101 28.5 -151t76.5 -50q56 0 82 66t26 200v406h416v-696q0 -191 49 -328h-366q-32 87 -49 195q-56 -109 -140.5 -166.5t-189.5 -57.5q-54 0 -102.5 14.5t-94 50t-78.5 88.5t-53 135.5t-20 186.5zM168 1182q27 30 61 73t76.5 103.5t70 121 t25.5 99.5h435q-2 -39 25.5 -99.5t70 -121t76.5 -103.5t61 -73h-346l-105 174q-17 -28 -51.5 -86.5t-52.5 -87.5h-346z" />
<glyph unicode="&#xfc;" horiz-adv-x="1226" d="M72 446v578h415v-471q0 -101 28.5 -151t76.5 -50q56 0 82 66t26 200v406h416v-696q0 -191 49 -328h-366q-32 87 -49 195q-56 -109 -140.5 -166.5t-189.5 -57.5q-54 0 -102.5 14.5t-94 50t-78.5 88.5t-53 135.5t-20 186.5zM180 1389q0 90 55.5 138t143.5 48q86 0 141 -48 t55 -138q0 -89 -55 -136t-141 -47q-88 0 -143.5 47t-55.5 136zM659 1389q0 90 55.5 138t141.5 48q88 0 143.5 -48t55.5 -138q0 -89 -55.5 -136t-143.5 -47q-86 0 -141.5 47.5t-55.5 135.5z" />
<glyph unicode="&#xfd;" horiz-adv-x="1210" d="M20 1008l445 39l149 -732l148 732l428 -39l-406 -1174q-66 -189 -163 -336l-355 158q97 123 135 293zM442 1182q42 175 187 436h413q-166 -267 -227 -436h-373z" />
<glyph unicode="&#xfe;" horiz-adv-x="1306" d="M72 -324v1758h415v-508q113 131 275 131q101 0 189.5 -35t156.5 -101t107.5 -171.5t39.5 -237.5q0 -130 -39.5 -234.5t-107.5 -170t-155 -100t-185 -34.5q-164 0 -281 117v-414h-415zM502 512q0 -108 47.5 -167.5t120.5 -59.5q72 0 122 61t50 166t-48 165t-120 60 q-75 0 -123.5 -60t-48.5 -165z" />
<glyph unicode="&#xff;" horiz-adv-x="1210" d="M20 1008l445 39l149 -732l148 732l428 -39l-406 -1174q-66 -189 -163 -336l-355 158q97 123 135 293zM178 1389q0 90 55.5 138t143.5 48q86 0 141 -48t55 -138q0 -89 -55 -136t-141 -47q-88 0 -143.5 47t-55.5 136zM657 1389q0 90 55.5 138t141.5 48q88 0 143.5 -48 t55.5 -138q0 -89 -55.5 -136t-143.5 -47q-86 0 -141.5 47.5t-55.5 135.5z" />
<glyph unicode="&#x152;" horiz-adv-x="2041" d="M55 723q0 108 27 210.5t83 193.5t135 159.5t190 108t241 39.5h1219v-349h-611v-184h553v-348h-553v-205h611v-348h-1219q-128 0 -238.5 40.5t-190 110.5t-136 162t-84 196.5t-27.5 213.5zM475 717q0 -76 22 -142t65 -117t113 -80.5t159 -29.5h84v737h-84 q-176 0 -267.5 -104t-91.5 -264z" />
<glyph unicode="&#x153;" horiz-adv-x="1921" d="M51 512q0 107 32.5 197t88.5 152.5t130.5 106.5t158 64.5t172.5 20.5q220 0 387 -115q157 117 352 117q83 0 156.5 -22t136.5 -68t108.5 -113.5t71 -163t25.5 -211.5v-39h-625q21 -84 86 -124t158 -40q143 0 293 80l71 -282q-255 -109 -456 -109q-223 0 -387 121 q-176 -113 -377 -113q-89 0 -172.5 20.5t-158 64.5t-130.5 106.5t-88.5 152.5t-32.5 197zM451 512q0 -65 16.5 -111.5t44.5 -70t57.5 -33.5t61.5 -10t61.5 10.5t58 34.5t45.5 70.5t17 109.5q0 64 -16.5 110.5t-44.5 70t-57.5 34t-61.5 10.5q-33 0 -62.5 -10.5t-58 -34 t-45 -70t-16.5 -110.5zM1241 588h225q-7 74 -38 111.5t-72 37.5q-42 0 -74.5 -37t-40.5 -112z" />
<glyph unicode="&#x178;" horiz-adv-x="1384" d="M20 1360l418 94l250 -516l254 516l422 -92l-451 -866v-496h-430v496zM252 1815q0 90 55.5 138t143.5 48q86 0 141 -48t55 -138q0 -89 -55 -136t-141 -47q-88 0 -143.5 47t-55.5 136zM731 1815q0 90 55.5 138t141.5 48q87 0 142.5 -48t55.5 -138q0 -89 -55.5 -136 t-142.5 -47q-86 0 -141.5 47.5t-55.5 135.5z" />
<glyph unicode="&#x2c6;" horiz-adv-x="1644" d="M61 1182q27 30 61 72.5t77 103.5t70.5 121.5t25.5 99.5h434q-2 -39 25.5 -99.5t70.5 -121.5t77 -103.5t61 -72.5h-347l-104 174q-17 -28 -51.5 -86.5t-52.5 -87.5h-347z" />
<glyph unicode="&#x2dc;" horiz-adv-x="1497" d="M-4 1384l186 -221q44 39 91 51.5t92 4.5t93 -23.5t102 -25.5t111.5 -7.5t130 35.5t148.5 98l-186 222q-47 -40 -94.5 -51t-91 -0.5t-89.5 28.5t-98.5 30t-109.5 9t-131 -39.5t-154 -110.5z" />
<glyph unicode="&#x2000;" horiz-adv-x="1057" />
<glyph unicode="&#x2001;" horiz-adv-x="2114" />
<glyph unicode="&#x2002;" horiz-adv-x="1057" />
<glyph unicode="&#x2003;" horiz-adv-x="2114" />
<glyph unicode="&#x2004;" horiz-adv-x="704" />
<glyph unicode="&#x2005;" horiz-adv-x="528" />
<glyph unicode="&#x2006;" horiz-adv-x="352" />
<glyph unicode="&#x2007;" horiz-adv-x="352" />
<glyph unicode="&#x2008;" horiz-adv-x="264" />
<glyph unicode="&#x2009;" horiz-adv-x="422" />
<glyph unicode="&#x200a;" horiz-adv-x="117" />
<glyph unicode="&#x2010;" horiz-adv-x="1034" d="M143 471v344h750v-344h-750z" />
<glyph unicode="&#x2011;" horiz-adv-x="1034" d="M143 471v344h750v-344h-750z" />
<glyph unicode="&#x2012;" horiz-adv-x="1034" d="M143 471v344h750v-344h-750z" />
<glyph unicode="&#x2013;" horiz-adv-x="1351" d="M143 471v344h1100v-344h-1100z" />
<glyph unicode="&#x2014;" horiz-adv-x="1495" d="M143 471v344h1209v-344h-1209z" />
<glyph unicode="&#x2018;" horiz-adv-x="548" d="M123 754h354v737h-354v-737z" />
<glyph unicode="&#x2019;" horiz-adv-x="548" d="M72 752h354v737h-354v-737z" />
<glyph unicode="&#x201a;" horiz-adv-x="856" d="M262 -53h354v737h-354v-737z" />
<glyph unicode="&#x201c;" horiz-adv-x="1488" d="M344 737h354v738h-354v-738zM879 737h354v738h-354v-738z" />
<glyph unicode="&#x201d;" horiz-adv-x="1488" d="M256 737h354v738h-354v-738zM791 737h354v738h-354v-738z" />
<glyph unicode="&#x201e;" horiz-adv-x="548" d="M123 -53h354v737h-354v-737z" />
<glyph unicode="&#x2022;" horiz-adv-x="1331" d="M215 748q0 106 35 191.5t96.5 141t143.5 85.5t176 30q126 0 226 -50.5t161 -154t61 -243.5q0 -141 -61 -245t-161 -155t-226 -51q-195 0 -323 120t-128 331z" />
<glyph unicode="&#x2026;" horiz-adv-x="1787" d="M119 172q0 107 65 168t164 61t164.5 -61t65.5 -168t-65.5 -168t-164.5 -61t-164 61t-65 168zM666 172q0 107 65 168t164 61t164 -61t65 -168t-65 -168t-164 -61t-164 61t-65 168zM1210 172q0 107 65.5 168t164.5 61t164 -61t65 -168t-65 -168t-164 -61t-164.5 61 t-65.5 168z" />
<glyph unicode="&#x202f;" horiz-adv-x="422" />
<glyph unicode="&#x2039;" horiz-adv-x="1282" d="M143 526l381 375h533l-393 -375l393 -374h-533z" />
<glyph unicode="&#x203a;" horiz-adv-x="1282" d="M225 152l393 374l-393 375h533l381 -375l-381 -374h-533z" />
<glyph unicode="&#x205f;" horiz-adv-x="528" />
<glyph unicode="&#x2122;" horiz-adv-x="3135" d="M37 1065v369h1253v-369h-411v-1065h-430l-5 1065h-407zM1419 0v1434h357l483 -836l512 836h272v-1434h-430v641l-311 -561h-150l-313 561v-641h-420z" />
<glyph unicode="&#x25fc;" horiz-adv-x="1044" d="M0 0v1044h1044v-1044h-1044z" />
</font>
</defs>
</svg>
