<?xml version="1.0" standalone="no"?>
<!DOCTYPE svg PUBLIC "-//W3C//DTD SVG 1.1//EN" "http://www.w3.org/Graphics/SVG/1.1/DTD/svg11.dtd" >
<svg xmlns="http://www.w3.org/2000/svg" xmlns:xlink="http://www.w3.org/1999/xlink" version="1.1">
<metadata></metadata>
<defs>
<font id="terpel_sansbold" horiz-adv-x="1476" >
<font-face units-per-em="2048" ascent="1638" descent="-410" />
<missing-glyph horiz-adv-x="452" />
<glyph horiz-adv-x="0" />
<glyph horiz-adv-x="682" />
<glyph unicode=" "  horiz-adv-x="452" />
<glyph unicode="&#x09;" horiz-adv-x="452" />
<glyph unicode="&#xa0;" horiz-adv-x="452" />
<glyph unicode="!" horiz-adv-x="589" d="M115 123q0 80 49.5 129t124.5 49t125.5 -49t50.5 -129q0 -78 -50.5 -126t-125.5 -48t-124.5 48t-49.5 126zM170 446h242v988h-242v-988z" />
<glyph unicode="&#x22;" horiz-adv-x="815" d="M78 889h211v584h-211v-584zM436 889h211v584h-211v-584z" />
<glyph unicode="#" horiz-adv-x="1488" d="M82 414v186h278l41 274h-268v187h297l57 373h236l-57 -373h268l57 373h238l-58 -373h236v-187h-264l-43 -274h256v-186h-285l-63 -414h-236l64 414h-267l-63 -414h-238l64 414h-250zM596 600h268l41 274h-266z" />
<glyph unicode="$" horiz-adv-x="1124" d="M68 215l75 178q184 -139 402 -139q72 0 133.5 15t106 54t44.5 97q0 68 -70.5 120t-228.5 115q-44 17 -70.5 28t-66 28.5t-63 31t-54.5 33.5t-49.5 38.5t-39 43.5t-31.5 51.5t-18 59t-7 69.5q0 138 88 223t230 115v183h243v-175q146 -14 293 -86l-67 -186 q-66 38 -155.5 61t-178.5 23q-105 0 -175.5 -36.5t-70.5 -102.5q0 -17 4.5 -31.5t15.5 -28t21.5 -24.5t31 -23t36 -20t44.5 -20t47 -19.5t53.5 -21t55.5 -21.5q80 -32 135.5 -58.5t109 -63t85 -75.5t51 -92.5t19.5 -118.5q0 -81 -28 -147t-77.5 -110.5t-111 -73.5 t-134.5 -43v-236h-241v229q-212 27 -387 156z" />
<glyph unicode="%" horiz-adv-x="1519" d="M70 1143q0 120 84.5 203.5t205.5 83.5q123 0 208 -83.5t85 -203.5q0 -118 -84 -199.5t-209 -81.5q-121 0 -205.5 82t-84.5 199zM252 1143q0 -46 32 -79.5t76 -33.5q45 0 77 33.5t32 79.5q0 51 -31.5 84t-77.5 33q-45 0 -76.5 -33.5t-31.5 -83.5zM283 0l690 1436h268 l-692 -1436h-266zM868 266q0 120 84.5 202.5t204.5 82.5q123 0 208 -82.5t85 -202.5q0 -117 -84.5 -198.5t-208.5 -81.5q-120 0 -204.5 81.5t-84.5 198.5zM1051 266q0 -46 31 -78t75 -32q46 0 78.5 32t32.5 78q0 49 -32.5 83t-78.5 34q-44 0 -75 -34t-31 -83z" />
<glyph unicode="&#x26;" horiz-adv-x="1429" d="M94 403q0 74 22 137t63.5 112.5t88.5 86.5t109 72q-135 166 -135 326q0 155 104.5 246.5t257.5 91.5q72 0 135.5 -23t115 -68.5t81.5 -122.5t31 -176h-211q0 118 -43.5 169t-110.5 51q-61 0 -103 -39t-42 -107q0 -250 585 -631q13 96 13 207l178 -20q0 -163 -27 -289 q10 -6 75 -43.5t101 -58.5l-104 -185l-170 103q-72 -138 -197 -210.5t-295 -72.5q-238 0 -380 127t-142 317zM307 416q0 -113 84 -188.5t230 -75.5q241 0 329 188q-307 202 -456 346q-89 -59 -138 -122t-49 -148z" />
<glyph unicode="'" horiz-adv-x="411" d="M78 889h211v584h-211v-584z" />
<glyph unicode="(" horiz-adv-x="841" d="M196 593.5q0 269.5 60.5 535.5t177.5 468h244q-117 -202 -177.5 -468t-60.5 -535.5t60.5 -535.5t177.5 -468h-244q-117 202 -177.5 468t-60.5 535.5z" />
<glyph unicode=")" horiz-adv-x="841" d="M164 -410q117 202 177.5 468t60.5 535.5t-60.5 535.5t-177.5 468h244q117 -202 177.5 -468t60.5 -535.5t-60.5 -535.5t-177.5 -468h-244z" />
<glyph unicode="*" horiz-adv-x="1126" d="M160 991v170q26 -2 76 -6.5t90 -7.5t75 -4q-32 29 -91 75.5t-83 67.5l129 129q119 -148 144 -176q-1 46 -21 244h172q-2 -26 -10 -112.5t-10 -131.5q26 28 145 176l127 -129q-24 -21 -83 -67.5t-91 -75.5q89 2 242 18v-170q-166 17 -242 19q25 -23 54 -47t64.5 -52 t55.5 -45l-127 -129q-19 22 -67 82t-78 92q4 -84 20 -241h-172q20 199 21 241q-31 -33 -144 -174l-129 129q20 17 55.5 45t64.5 52t54 47q-46 -1 -137 -9.5t-104 -9.5z" />
<glyph unicode="+" horiz-adv-x="1196" d="M170 442v224h313v319h242v-319h313v-224h-313v-317h-242v317h-313z" />
<glyph unicode="," horiz-adv-x="468" d="M82 -252l192 -24q85 219 105 563h-209q-4 -160 -21 -289t-67 -250z" />
<glyph unicode="-" horiz-adv-x="948" d="M143 471v211h664v-211h-664z" />
<glyph unicode="." horiz-adv-x="487" d="M76 121q0 76 48.5 123t119.5 47q72 0 121 -47t49 -123q0 -75 -49 -121.5t-121 -46.5q-71 0 -119.5 46.5t-48.5 121.5z" />
<glyph unicode="/" horiz-adv-x="1175" d="M51 -410l680 2048h250l-680 -2048h-250z" />
<glyph unicode="0" horiz-adv-x="1290" d="M80 717q0 158 30 286.5t82.5 215.5t124.5 146t154 85.5t174 26.5q93 0 175.5 -26.5t154.5 -85.5t123.5 -146t81.5 -215.5t30 -286.5t-30 -286.5t-81.5 -215.5t-123.5 -146t-154.5 -85.5t-175.5 -26.5q-92 0 -174 26.5t-154 85.5t-124.5 146t-82.5 215.5t-30 286.5z M326 717q0 -143 24 -247t67.5 -164.5t99.5 -89t126 -28.5q71 0 128 28.5t102 89.5t69.5 165t24.5 246q0 275 -87.5 401.5t-236.5 126.5q-146 0 -231.5 -126t-85.5 -402z" />
<glyph unicode="1" horiz-adv-x="798" d="M131 999v195h80q111 0 159 58.5t48 181.5h235v-1434h-245v999h-277z" />
<glyph unicode="2" horiz-adv-x="1273" d="M129 0v133q0 90 40 175t103.5 152.5t140.5 131.5t154.5 123t141 114.5t103.5 117.5t40 122q0 89 -77 140t-195 51q-160 0 -338 -99l-76 197q210 112 442 112q137 0 247.5 -44.5t176.5 -133t66 -207.5q0 -85 -38.5 -167.5t-100 -148.5t-135.5 -129t-148.5 -119 t-135.5 -107t-99 -104.5t-38 -102.5h744v-207h-1018z" />
<glyph unicode="3" horiz-adv-x="1198" d="M94 143l137 164q51 -59 135.5 -97t176.5 -38q133 0 217 80.5t84 202.5q0 121 -92 199.5t-267 78.5q-75 0 -110 -2v100l348 394h-520v209h827v-125l-379 -420q206 -12 324.5 -139t118.5 -308q0 -93 -35.5 -178.5t-101.5 -154t-170 -109.5t-230 -41q-129 0 -248.5 46 t-214.5 138z" />
<glyph unicode="4" horiz-adv-x="1370" d="M129 289v170l727 975h223v-953h176v-192h-176v-289h-233v289h-717zM367 481h479v635z" />
<glyph unicode="5" horiz-adv-x="1234" d="M127 166l117 176q133 -156 329 -156q144 0 229 88t85 224q0 127 -77.5 207.5t-209.5 80.5q-113 0 -207 -67l-190 2l114 713h693v-213h-533l-57 -326q117 72 248 72q91 0 168.5 -28.5t130 -76t90 -110t54.5 -130t17 -137.5q0 -77 -21.5 -151.5t-65.5 -142t-105.5 -118 t-149 -80.5t-188.5 -30q-138 0 -259.5 53.5t-211.5 149.5z" />
<glyph unicode="6" horiz-adv-x="1228" d="M86 469q-6 169 88 338q271 493 342 627h262l-262 -473q77 47 162 47q197 0 337 -149t140 -363q0 -150 -73.5 -272.5t-198 -190.5t-271.5 -68q-139 0 -258.5 66.5t-191 182.5t-76.5 255zM332 492q0 -131 79.5 -222.5t202.5 -91.5q124 0 207 89t86 222q2 142 -77.5 236 t-206.5 94t-208 -95t-83 -232z" />
<glyph unicode="7" horiz-adv-x="1069" d="M53 1221v213h969v-115l-602 -1319h-252l557 1221h-672z" />
<glyph unicode="8" horiz-adv-x="1187" d="M70 401q0 143 81.5 246.5t208.5 149.5q-86 46 -143 126.5t-57 186.5q0 160 124 262.5t310 100.5q187 2 310.5 -100.5t123.5 -262.5q0 -106 -57.5 -186.5t-143.5 -128.5q126 -44 208.5 -147t82.5 -247q0 -131 -71 -232.5t-189.5 -155.5t-263.5 -54q-144 0 -262.5 54 t-190 155.5t-71.5 232.5zM322 426q0 -114 74.5 -191t197.5 -77q122 0 197 77.5t75 190.5q0 117 -78 191.5t-194 74.5t-194 -74.5t-78 -191.5zM377 1077q0 -91 62 -153t155 -62t154 62t61 153q0 87 -59.5 145.5t-155.5 57.5q-97 -1 -157 -59t-60 -144z" />
<glyph unicode="9" horiz-adv-x="1265" d="M94 938q0 113 43.5 212t117 168.5t173.5 109.5t209 40q141 0 260 -66t190.5 -182t75.5 -255q6 -173 -86 -338q-171 -305 -344 -627h-260l260 473q-74 -47 -162 -47q-128 0 -238 67.5t-174.5 185.5t-64.5 259zM342 944q-2 -142 78 -236t209 -94q126 0 206.5 95.5 t82.5 232.5q2 130 -78.5 221.5t-204.5 91.5q-123 0 -206.5 -89.5t-86.5 -221.5z" />
<glyph unicode=":" horiz-adv-x="567" d="M117 111q0 76 47.5 123t118.5 47q72 0 121 -47t49 -123q0 -75 -49 -121.5t-121 -46.5q-71 0 -118.5 46.5t-47.5 121.5zM117 887q0 76 47.5 123t118.5 47q72 0 121 -47t49 -123q0 -74 -49 -120t-121 -46q-70 0 -118 46t-48 120z" />
<glyph unicode=";" horiz-adv-x="567" d="M104 -254l193 -25q87 228 102 564h-209q-4 -159 -21 -288.5t-65 -250.5zM123 887q0 76 48 123t120 47t120 -47t48 -123q0 -75 -48 -121.5t-120 -46.5t-120 46.5t-48 121.5z" />
<glyph unicode="&#x3c;" horiz-adv-x="1204" d="M158 422v213l813 338l53 -189l-641 -258l641 -266l-53 -190z" />
<glyph unicode="=" horiz-adv-x="1335" d="M178 387v213h981v-213h-981zM178 795v213h981v-213h-981z" />
<glyph unicode="&#x3e;" horiz-adv-x="1204" d="M164 260l641 266l-641 258l53 189l811 -338v-213l-811 -352z" />
<glyph unicode="?" horiz-adv-x="1026" d="M14 1335q225 138 461 138q133 0 240 -41.5t173 -126.5t66 -201q0 -69 -24 -129t-62 -103t-84 -82.5t-92 -75.5t-84 -72.5t-62 -84t-24 -100.5h-225q0 76 23.5 140t60.5 108.5t82 83t90 70.5t82 62.5t60.5 67.5t23.5 78q0 82 -78.5 136t-200.5 54q-169 0 -338 -122z M240 121q0 78 49 126t123 48t123 -48t49 -126q0 -77 -49.5 -124.5t-122.5 -47.5t-122.5 47.5t-49.5 124.5z" />
<glyph unicode="@" horiz-adv-x="1499" d="M80 530q0 142 53 268.5t142.5 216.5t213.5 142.5t261 52.5t261 -52t213 -139.5t141 -208t52 -251.5q0 -156 -69.5 -261t-186.5 -105q-76 0 -132.5 47.5t-67.5 121.5q-30 -81 -98 -129.5t-165 -48.5q-141 0 -232 97.5t-91 246.5q0 151 93.5 248.5t229.5 97.5 q101 0 169.5 -53.5t88.5 -134.5q5 75 21 148h131q-41 -144 -41 -297q0 -244 121 -244q40 0 68 25.5t41 68t18.5 81t5.5 79.5q0 161 -77 291.5t-206.5 202t-285.5 71.5q-118 0 -224 -44.5t-183 -121.5t-122 -185.5t-45 -230.5t45 -230t121 -182.5t177.5 -117.5t211.5 -43 q93 0 181 29.5t153 85.5l57 -78q-83 -65 -186 -100t-211 -35q-127 0 -244.5 50.5t-206.5 138t-142.5 213.5t-53.5 269zM530 526q0 -86 53.5 -143t139.5 -57q87 0 141 57.5t54 144.5q0 86 -54.5 144.5t-140.5 58.5t-139.5 -58.5t-53.5 -146.5z" />
<glyph unicode="A" d="M61 10l543 1424h268l543 -1424l-250 -28l-149 403h-557l-150 -403zM530 580h416l-209 563z" />
<glyph unicode="B" horiz-adv-x="1339" d="M145 0v1434h523q113 0 205 -32.5t148.5 -87t87 -121.5t30.5 -140q0 -81 -37.5 -156.5t-108.5 -128.5q125 -48 193.5 -146.5t68.5 -215.5q0 -78 -30.5 -149.5t-88 -129.5t-149.5 -92.5t-205 -34.5h-637zM397 213h359q120 0 186 63t66 152q0 87 -66 151t-186 64h-359v-430z M397 821h254q116 0 178 59.5t62 141.5q0 81 -63.5 140t-176.5 59h-254v-400z" />
<glyph unicode="C" horiz-adv-x="1394" d="M80 713q0 135 43 255.5t119 211.5t177 157.5t219.5 101t242.5 34.5q239 0 432 -125l-27 -224q-175 125 -387 125q-147 0 -275 -65.5t-208 -189t-80 -277.5q0 -153 79 -275t207.5 -187t278.5 -65q203 0 383 111l29 -219q-198 -115 -432 -115q-126 0 -244.5 33t-219 98 t-176 154.5t-118.5 208t-43 252.5z" />
<glyph unicode="D" horiz-adv-x="1460" d="M145 0v1434h562q130 0 241 -40t189 -108t134 -159t82.5 -193.5t26.5 -210.5q0 -109 -27.5 -213.5t-83.5 -196.5t-134.5 -162t-189 -110.5t-238.5 -40.5h-562zM397 213h236q123 0 218.5 39.5t154 109.5t88.5 159.5t30 195.5q0 107 -30 197t-88.5 159.5t-154 108.5 t-218.5 39h-236v-1008z" />
<glyph unicode="E" horiz-adv-x="1202" d="M145 0v1434h916v-213h-664v-377h621v-213h-621v-418h674v-213h-926z" />
<glyph unicode="F" horiz-adv-x="1185" d="M145 0v1434h926v-213h-674v-377h629v-219h-629v-625h-252z" />
<glyph unicode="G" horiz-adv-x="1595" d="M80 702q0 171 66.5 317.5t178.5 244.5t259 153.5t307 55.5q247 0 463 -125l-29 -218q-197 121 -412 121q-117 0 -222 -39.5t-184 -109.5t-125 -174.5t-46 -227.5q0 -223 141.5 -365t349.5 -142q103 0 194 36.5t153.5 113t68.5 179.5v76h-362v203h579v-434q0 -211 56 -367 h-224q-26 131 -35 215q-81 -115 -209.5 -177.5t-277.5 -62.5q-108 0 -210 33t-188.5 96.5t-152 151t-102.5 202.5t-37 244z" />
<glyph unicode="H" horiz-adv-x="1531" d="M145 0v1434h252v-584h738v584h251v-1434h-251v616h-738v-616h-252z" />
<glyph unicode="I" horiz-adv-x="544" d="M145 0v1434h252v-1434h-252z" />
<glyph unicode="J" horiz-adv-x="1136" d="M49 66l57 217q101 -53 194 -75q59 -14 113 -14q33 0 63 5q82 13 143 61t96 142t35 227v805h251v-834q0 -147 -38 -264.5t-104.5 -193.5t-157.5 -121t-197 -53q-26 -3 -54 -3q-81 0 -168 19q-116 25 -233 82z" />
<glyph unicode="K" horiz-adv-x="1298" d="M145 0v1434h252v-594l607 598l243 -47l-514 -523l582 -835l-252 -58l-506 715l-160 -162v-528h-252z" />
<glyph unicode="L" horiz-adv-x="1005" d="M145 0v1434h252v-1221h559v-213h-811z" />
<glyph unicode="M" horiz-adv-x="1816" d="M145 0v1434h220l561 -1043l569 1043h174v-1434h-252v920l-450 -848h-123l-449 848v-920h-250z" />
<glyph unicode="N" horiz-adv-x="1503" d="M145 0v1434h191l774 -985v985h246v-1434h-191l-774 985v-985h-246z" />
<glyph unicode="O" horiz-adv-x="1673" d="M80 717q0 208 101 381t275 272.5t382 99.5q156 0 296.5 -59t241.5 -159t160 -239.5t59 -295.5q0 -155 -59 -294.5t-160 -240.5t-241.5 -160t-296.5 -59t-296 59t-241.5 160t-161 240.5t-59.5 294.5zM336 717q0 -142 62 -263t178 -195.5t260 -74.5q144 1 260.5 75 t179.5 195.5t63 262.5t-63 262.5t-179.5 195.5t-260.5 74q-109 0 -203 -43.5t-158.5 -116.5t-101.5 -169.5t-37 -202.5z" />
<glyph unicode="P" horiz-adv-x="1243" d="M145 0v1434h537q114 0 206 -37t150.5 -100.5t89.5 -145t31 -172.5t-31 -173t-89.5 -145.5t-150.5 -101t-206 -37.5h-285v-522h-252zM397 737h260q119 0 182.5 69.5t63.5 172.5t-63.5 172.5t-182.5 69.5h-260v-484z" />
<glyph unicode="Q" horiz-adv-x="1679" d="M80 717q0 208 101 381t275 272.5t382 99.5q156 0 296.5 -59t241.5 -159t160 -239.5t59 -295.5q0 -163 -64.5 -307.5t-178.5 -249.5l204 -258l-141 -115l-211 268q-170 -92 -366 -92q-156 0 -296 59t-241.5 160t-161 240.5t-59.5 294.5zM336 717q0 -142 62 -263 t178 -195.5t260 -74.5q115 0 223 54l-209 264l139 114l213 -268q65 74 101 170t36 199q0 141 -63 262.5t-179.5 195.5t-260.5 74q-109 0 -203 -43.5t-158.5 -116.5t-101.5 -169.5t-37 -202.5z" />
<glyph unicode="R" horiz-adv-x="1306" d="M145 0v1434h541q114 0 205 -34t149.5 -93t89.5 -136.5t31 -166.5q0 -148 -82.5 -263.5t-232.5 -156.5l403 -545l-239 -59l-439 583h-174v-563h-252zM397 739h254q126 0 192 68.5t66 173.5q0 103 -65.5 170.5t-192.5 67.5h-254v-480z" />
<glyph unicode="S" horiz-adv-x="1251" d="M78 147l84 203q211 -157 452 -157q82 0 151 17t119 61t50 110q0 74 -80 132.5t-256 129.5q-50 20 -79.5 32t-74 32t-71 35t-61.5 38t-55.5 44t-43.5 49t-35 58t-20 66.5t-8 77.5q0 82 29 149t78.5 112t117 75.5t143 44.5t158.5 14q217 0 436 -102l-78 -209 q-74 41 -175.5 66.5t-201.5 25.5q-119 0 -197.5 -40t-78.5 -115q0 -19 5 -35.5t17 -31.5t24.5 -27.5t35.5 -25.5t41 -22.5t49.5 -23t53 -21.5t60.5 -23t62 -24q91 -36 153 -66t123 -71t96.5 -85.5t57 -105t21.5 -133.5q0 -113 -47.5 -199t-128 -136t-176.5 -74.5t-203 -24.5 q-302 0 -547 180z" />
<glyph unicode="T" horiz-adv-x="1243" d="M59 1210v224h1127v-224h-438v-1210h-252l-2 1210h-435z" />
<glyph unicode="U" horiz-adv-x="1404" d="M106 553v881h252v-895q0 -111 51 -192.5t127 -119.5q75 -37 161 -37h5q89 0 165 38.5t126.5 119.5t50.5 191v895h254v-881q0 -138 -51 -252t-135.5 -186t-189.5 -111t-217 -39q-114 0 -220 39t-191 111t-136.5 186t-51.5 252z" />
<glyph unicode="V" horiz-adv-x="1488" d="M63 1421l252 39l428 -1171l426 1171l256 -39l-532 -1421h-299z" />
<glyph unicode="W" horiz-adv-x="2144" d="M63 1419l265 43l290 -1181l349 1153h213l336 -1158l301 1186l266 -43l-410 -1419h-319l-287 1034l-307 -1034h-318z" />
<glyph unicode="X" horiz-adv-x="1398" d="M61 23l453 692l-446 702l258 47l372 -600l375 600l256 -47l-446 -702l452 -692l-258 -48l-379 588l-376 -588z" />
<glyph unicode="Y" horiz-adv-x="1349" d="M53 1395l240 67l383 -712l379 712l243 -65l-493 -910v-487h-252v487z" />
<glyph unicode="Z" horiz-adv-x="1327" d="M82 0v184l799 1028h-758v222h1094v-187l-785 -1020h813v-227h-1163z" />
<glyph unicode="[" horiz-adv-x="819" d="M199 -410v2007h456v-206h-209v-1594h209v-207h-456z" />
<glyph unicode="\" horiz-adv-x="1175" d="M197 1638h249l680 -2048h-249z" />
<glyph unicode="]" horiz-adv-x="815" d="M164 -203h209v1594h-209v206h457v-2007h-457v207z" />
<glyph unicode="^" horiz-adv-x="1179" d="M203 1018l280 436h226l280 -436l-190 -64l-203 355l-203 -355z" />
<glyph unicode="_" horiz-adv-x="1200" d="M123 29v-211h954v211h-954z" />
<glyph unicode="`" horiz-adv-x="919" d="M63 1591q117 -200 168 -377h218q-34 177 -142 388z" />
<glyph unicode="a" horiz-adv-x="1189" d="M74 299q0 106 58.5 184.5t151 116t203.5 37.5q94 0 182 -29t150 -92v107q0 114 -89 177.5t-230 63.5q-154 0 -301 -78l-54 191q203 86 394 86q222 0 366 -111t144 -305v-319q0 -163 59 -328h-246q-16 54 -26 125q-62 -82 -159 -122t-200 -40q-107 0 -197 37.5t-148 115.5 t-58 183zM305 301q0 -59 36 -99.5t86 -56.5t110 -16q106 0 189 49t83 127q0 74 -78.5 122t-185.5 48q-60 0 -112 -15.5t-90 -56.5t-38 -102z" />
<glyph unicode="b" horiz-adv-x="1310" d="M137 0v1434h246v-570q62 95 156.5 145t205.5 50q94 0 180 -35t155 -101t110 -172.5t41 -238.5q0 -131 -40 -236.5t-108 -171.5t-154 -100.5t-181 -34.5q-121 0 -224 57.5t-164 166.5l-2 -3v-190h-221zM383 512q0 -159 88 -251.5t209 -92.5q123 0 212 93t89 251t-88 251 t-209 93q-124 0 -212.5 -92.5t-88.5 -251.5z" />
<glyph unicode="c" horiz-adv-x="1062" d="M78 508q0 131 47 237.5t127 174.5t183.5 104.5t219.5 36.5q185 0 336 -84l-39 -197q-46 37 -117.5 60.5t-150.5 23.5q-154 0 -255 -94.5t-101 -259.5t100.5 -258.5t255.5 -93.5q78 0 150.5 24t121.5 60l39 -193q-144 -90 -340 -90q-118 0 -222 36.5t-183.5 104.5 t-125.5 173.5t-46 234.5z" />
<glyph unicode="d" horiz-adv-x="1333" d="M78 512q0 132 41 238.5t110.5 172.5t156.5 101t183 35q108 0 201.5 -49.5t155.5 -143.5v568h245v-1106q0 -168 54 -328h-226q-33 116 -47 197q-60 -111 -162.5 -169.5t-224.5 -58.5q-95 0 -181 34.5t-155 100.5t-110 171.5t-41 236.5zM328 512q0 -158 89 -251t210 -93 q123 0 211 92t88 252q0 159 -88.5 251.5t-212.5 92.5q-121 0 -209 -93t-88 -251z" />
<glyph unicode="e" horiz-adv-x="1210" d="M78 516q0 107 31.5 198.5t84.5 155t122.5 108.5t146 66t155.5 21q140 0 254.5 -60t187 -181.5t77.5 -286.5v-82h-811q20 -139 116.5 -219t241.5 -80q182 0 373 110l47 -188q-224 -119 -442 -119q-119 0 -224.5 37.5t-185.5 106.5t-127 175.5t-47 237.5zM332 618h583 q-14 110 -93.5 182t-192.5 72q-108 0 -189.5 -70t-107.5 -184z" />
<glyph unicode="f" horiz-adv-x="890" d="M72 842v182h176v72q0 104 33.5 184.5t91.5 128t128 71t150 23.5q131 0 228 -57l-48 -203q-81 47 -159 47t-127 -52.5t-49 -156.5v-57h278v-182h-278v-842h-248v842h-176z" />
<glyph unicode="g" horiz-adv-x="1236" d="M76 -141q0 84 57.5 146.5t167.5 96.5q-135 63 -135 174q0 54 31.5 96.5t89.5 65.5q-71 50 -109.5 120t-38.5 151q0 67 26.5 124.5t71.5 98.5t104.5 70t126 43t136.5 14q135 0 234 -50t159 -126q-18 58 -18 107q0 40 12 75h238q-135 -165 -135 -356q0 -158 -123.5 -259.5 t-343.5 -101.5q-115 0 -219 33q-39 -25 -39 -68q0 -24 16 -43t39 -31t64 -23t76 -17.5t91 -14.5l62 -10q59 -9 107 -19t103 -26.5t96 -39t76 -53t53.5 -73t18.5 -94.5q0 -150 -149 -234t-399 -84q-261 0 -404 87.5t-143 220.5zM322 -115q0 -72 76.5 -118t234.5 -46 q139 0 216 37t77 99q0 37 -32 62.5t-117.5 47.5t-235.5 39q-29 4 -55 4q-64 0 -106 -26q-58 -35 -58 -99zM379 702q0 -91 68 -142.5t174 -51.5q105 0 174 51.5t69 142.5q0 90 -68.5 140.5t-174.5 50.5q-107 0 -174.5 -50t-67.5 -141z" />
<glyph unicode="h" horiz-adv-x="1280" d="M137 0v1434h242v-594q62 108 158.5 163.5t212.5 55.5q81 0 153 -28.5t131.5 -85t94 -152.5t34.5 -220v-573h-245v541q0 154 -70.5 228.5t-175.5 74.5q-126 0 -209.5 -101.5t-83.5 -281.5v-461h-242z" />
<glyph unicode="i" horiz-adv-x="536" d="M94 1370q0 76 50 122t124 46t124 -46t50 -122t-50 -121t-124 -45t-124 45t-50 121zM143 0v1024h246v-1024h-246z" />
<glyph unicode="j" horiz-adv-x="600" d="M-8 -338q44 53 78.5 114.5t56.5 115t37.5 127t23 122t11 130t3.5 121.5q1 13 1 31q0 37 -1 95q-1 86 -1 115v391h245v-481v-62q1 -57 1 -97q0 -19 -1 -34q0 -46 -4 -130.5t-12.5 -138.5t-25 -131.5t-40.5 -136.5t-61.5 -126.5t-85.5 -126.5zM141 1370q0 76 50 122t124 46 t124 -46t50 -122t-50 -121t-124 -45t-124 45t-50 121z" />
<glyph unicode="k" horiz-adv-x="1177" d="M137 0v1434h246v-789l481 387l223 -51l-405 -346l463 -608l-250 -58l-387 516l-125 -106v-379h-246z" />
<glyph unicode="l" horiz-adv-x="528" d="M141 0v1434h246v-1434h-246z" />
<glyph unicode="m" horiz-adv-x="1908" d="M88 1024h229q28 -107 39 -193q55 113 144.5 169.5t199.5 56.5q117 0 214 -64.5t139 -189.5q54 127 147.5 190.5t210.5 63.5q75 0 141.5 -26t121 -78t86.5 -139.5t32 -199.5v-614h-246l-2 578q0 124 -60.5 190t-148.5 66q-105 0 -179.5 -89.5t-74.5 -248.5v-496h-245v578 q0 123 -62 189.5t-149 66.5q-105 0 -179.5 -89.5t-74.5 -248.5v-496h-246v696q0 206 -37 328z" />
<glyph unicode="n" horiz-adv-x="1269" d="M88 1024h229q23 -85 41 -197q60 114 158.5 172t218.5 58q83 0 156 -28t132.5 -84t94.5 -152t35 -220v-573h-246v543q0 153 -71 227t-177 74q-124 0 -206 -97t-82 -276v-471h-246v696q0 206 -37 328z" />
<glyph unicode="o" horiz-adv-x="1263" d="M78 512q0 162 77 290t202.5 195.5t273.5 67.5q149 0 274.5 -67.5t202 -195.5t76.5 -290q0 -165 -75.5 -292.5t-200.5 -194t-277 -66.5q-148 0 -273.5 67.5t-202.5 195.5t-77 290zM326 512q0 -159 85.5 -257.5t217.5 -98.5q131 0 219 99.5t88 256.5q0 158 -87 257t-218 99 t-218 -99t-87 -257z" />
<glyph unicode="p" horiz-adv-x="1320" d="M98 1024h226q29 -109 41 -193q60 111 162.5 169.5t224.5 58.5q75 0 146 -21.5t133.5 -66.5t109 -108t73.5 -152.5t27 -194.5q0 -133 -41 -239.5t-110.5 -172.5t-156.5 -100.5t-183 -34.5q-110 0 -205.5 53t-157.5 152l-2 -532h-246v1044q0 194 -41 338zM389 514 q0 -158 90 -252t213 -94q122 0 210.5 93.5t88.5 252.5q0 81 -25.5 147.5t-67.5 109.5t-96 66t-112 23q-122 0 -211.5 -93.5t-89.5 -252.5z" />
<glyph unicode="q" horiz-adv-x="1320" d="M78 516q0 130 41 235.5t110 171.5t156 101t182 35q121 0 223 -57.5t162 -167.5q17 95 43 190h224q-41 -155 -41 -338v-1044h-246l-2 532q-62 -100 -157 -152.5t-206 -52.5q-96 0 -183 34.5t-156 100.5t-109.5 172.5t-40.5 239.5zM328 514q0 -158 88 -252t209 -94 q124 0 214.5 94t90.5 252q0 159 -90 252.5t-213 93.5q-122 0 -210.5 -93.5t-88.5 -252.5z" />
<glyph unicode="r" horiz-adv-x="851" d="M88 1024h240q27 -103 39 -223q33 65 77 114.5t105.5 86t135.5 42.5q16 1 33 1q61 0 134 -17l-68 -225q-68 17 -124 17q-30 0 -58 -5q-76 -14 -125.5 -62.5t-73.5 -111.5t-24 -135v-506h-246v696q0 189 -45 328z" />
<glyph unicode="s" horiz-adv-x="1013" d="M68 80l59 194q78 -60 175 -91t187 -31q91 0 147 36t56 93q0 50 -45.5 81.5t-150.5 69.5l-52 14q-66 21 -116 44.5t-99.5 60t-76.5 89t-27 120.5q-1 141 121 219t317 78q178 0 342 -70l-63 -188q-57 33 -134 52t-151 19q-83 0 -137.5 -26t-54.5 -80q0 -47 45.5 -75 t162.5 -68l37 -11q326 -107 326 -325q-1 -102 -59 -175.5t-154.5 -110t-220.5 -36.5q-228 0 -434 117z" />
<glyph unicode="t" horiz-adv-x="892" d="M68 842v166q47 0 73.5 1.5t50 10t33.5 19t17 36t8.5 53t1.5 78.5v62h219v-244h309v-182h-309v-514q0 -82 41 -122t106 -40q96 0 185 76l53 -201q-138 -80 -278 -80q-156 0 -254.5 86.5t-98.5 253.5v541h-157z" />
<glyph unicode="u" horiz-adv-x="1275" d="M125 444v580h246l2 -524q0 -156 64.5 -230.5t166.5 -74.5q117 0 186.5 95t69.5 283v451h246v-696q0 -180 53 -328h-225q-36 90 -51 219q-55 -125 -149 -188.5t-218 -63.5q-60 0 -114 14.5t-105.5 50t-89 88.5t-60 136.5t-22.5 187.5z" />
<glyph unicode="v" horiz-adv-x="1155" d="M33 1004l252 40l293 -854l292 854l252 -40l-381 -1004h-327z" />
<glyph unicode="w" horiz-adv-x="1667" d="M33 1004l250 40l221 -841l248 821h163l252 -825l219 845l250 -40l-309 -1004h-278l-213 756l-215 -756h-279z" />
<glyph unicode="x" horiz-adv-x="1103" d="M20 1006l254 43l281 -406l279 406l249 -43l-352 -492l352 -496l-254 -41l-278 404l-277 -404l-251 41l354 492z" />
<glyph unicode="y" horiz-adv-x="1150" d="M33 1004l254 40l295 -851l292 851l244 -40l-442 -1108q-111 -276 -244 -373l-194 108q76 57 124 141t91 201z" />
<glyph unicode="z" horiz-adv-x="1107" d="M68 0v68l598 778h-557v178h899v-70l-590 -772h614v-182h-964z" />
<glyph unicode="{" horiz-adv-x="989" d="M205 469v205q61 0 86.5 27t25.5 108v479q0 97 49.5 170t126.5 107t176 30t193 -51l-57 -201q-47 28 -101.5 33t-97.5 -26t-43 -99v-233v-54q2 -47 0.5 -93t-4 -88.5t-11 -79t-22 -63.5t-37 -42.5t-55.5 -15.5v-17q95 0 119 -146q11 -67 10 -259v-31v-231q0 -52 25 -83.5 t63 -38.5t79 0t75 27l57 -198q-94 -48 -193 -52.5t-176 29.5t-126.5 107t-49.5 170v475q0 81 -25.5 108t-86.5 27z" />
<glyph unicode="}" horiz-adv-x="989" d="M129 -395l57 198q34 -20 75 -27t79 0t63 38.5t25 83.5v231v54q-2 47 -0.5 93t4 88.5t11 79t22 63.5t37 42.5t55.5 15.5v17q-95 0 -119 146q-11 67 -10 259v31v233q0 68 -43 99t-97.5 26t-101.5 -33l-57 201q94 47 193 51t176 -30t126.5 -107t49.5 -170v-479 q0 -81 25.5 -108t86.5 -27v-205q-61 0 -86.5 -27t-25.5 -108v-475q0 -97 -49.5 -170t-126.5 -107t-176 -29.5t-193 52.5z" />
<glyph unicode="&#xa1;" horiz-adv-x="589" d="M115 1061q0 77 49.5 125.5t124.5 48.5t125.5 -48.5t50.5 -125.5q0 -81 -50 -129.5t-126 -48.5q-75 0 -124.5 48.5t-49.5 129.5zM170 -252h242v987h-242v-987z" />
<glyph unicode="&#xa8;" horiz-adv-x="1062" d="M190 1372q0 64 41.5 101.5t104.5 37.5q59 0 99 -37.5t40 -101.5q0 -61 -40 -99t-99 -38q-63 0 -104.5 37.5t-41.5 99.5zM588 1372q0 64 40 101.5t99 37.5q63 0 104 -37.5t41 -101.5q0 -62 -41 -99.5t-104 -37.5q-59 0 -99 38t-40 99z" />
<glyph unicode="&#xa9;" horiz-adv-x="1863" d="M125 522q0 161 64 308.5t171.5 254t256.5 169.5t313 63q166 0 316 -63t258 -169.5t171.5 -253.5t63.5 -309t-63.5 -309.5t-171.5 -254t-258 -169.5t-316 -63q-218 0 -403.5 106.5t-293.5 290t-108 399.5zM256 526q0 -137 53.5 -261.5t144 -214.5t216 -143.5t264.5 -53.5 q137 0 261.5 53.5t215 143.5t144 214.5t53.5 261.5q0 134 -53.5 257t-144 211.5t-215 141t-261.5 52.5q-139 0 -264.5 -52.5t-216 -141.5t-144 -211t-53.5 -257zM528 526q0 -113 53.5 -208.5t156 -154.5t233.5 -59q133 0 239 68l-39 172q-91 -61 -192 -61q-104 0 -175 64.5 t-71 170.5t71.5 171t174.5 65q100 0 190 -62l37 168q-114 68 -248 68q-196 0 -313 -116t-117 -286z" />
<glyph unicode="&#xab;" horiz-adv-x="1591" d="M209 526l424 375h325l-436 -375l436 -374h-325zM745 526l424 375h326l-436 -375l436 -374h-326z" />
<glyph unicode="&#xad;" horiz-adv-x="948" d="M143 471v211h664v-211h-664z" />
<glyph unicode="&#xae;" horiz-adv-x="880" d="M102 1106q0 139 99 237.5t239 98.5q139 0 238.5 -98.5t99.5 -237.5t-100 -239.5t-238 -100.5q-139 0 -238.5 100t-99.5 240zM164 1106q0 -116 81 -198.5t195 -82.5t196.5 83t82.5 198q0 114 -82.5 195t-196.5 81q-116 0 -196 -80t-80 -196zM340 942v322h109 q55 0 85.5 -30.5t30.5 -70.5q0 -34 -21 -60.5t-59 -35.5l80 -100l-45 -35l-108 131h-6v-121h-66zM406 1112h36q24 0 38 13.5t14 31.5q0 20 -14 34.5t-38 14.5h-36v-94z" />
<glyph unicode="&#xaf;" horiz-adv-x="1083" d="M61 1335h684v158h-684v-158z" />
<glyph unicode="&#xb0;" horiz-adv-x="673" d="M80 1126q0 106 75 180t183 74q106 0 180 -74t74 -180q0 -105 -73 -177t-181 -72q-109 0 -183.5 72.5t-74.5 176.5zM217 1126q0 -51 34.5 -86.5t86.5 -35.5q50 0 84.5 35.5t34.5 86.5q0 54 -34.5 90.5t-84.5 36.5q-52 0 -86.5 -36.5t-34.5 -90.5z" />
<glyph unicode="&#xb1;" horiz-adv-x="1155" d="M123 115v204h868v-204h-868zM123 741v224h313v319h244v-319h311v-224h-311v-317h-244v317h-313z" />
<glyph unicode="&#xb4;" horiz-adv-x="911" d="M63 1214h220q53 184 166 377l-242 11q-105 -198 -144 -388z" />
<glyph unicode="&#xb6;" horiz-adv-x="1558" d="M162 946q1 94 33 179.5t93 155.5t159 111.5t219 41.5h264v-1659h-242v686h-22q-98 0 -181 27t-142 73.5t-100 108.5t-61 132t-20 144zM1098 -225v1659h243v-1659h-243z" />
<glyph unicode="&#xb7;" horiz-adv-x="751" d="M209 614q0 76 47.5 123t118.5 47q72 0 121 -47t49 -123q0 -75 -49 -121.5t-121 -46.5q-71 0 -118.5 46.5t-47.5 121.5z" />
<glyph unicode="&#xb8;" horiz-adv-x="569" d="M102 -385l37 78q51 -51 113 -51q43 0 70.5 23t27.5 61q0 39 -27.5 62.5t-76.5 23.5q-45 0 -78 -21l-8 64l39 145h106l-24 -98q89 -6 136.5 -54.5t47.5 -119.5q0 -82 -56.5 -133.5t-144.5 -51.5q-50 0 -93.5 19.5t-68.5 52.5z" />
<glyph unicode="&#xbb;" horiz-adv-x="1599" d="M147 152l437 374l-437 375h326l424 -375l-424 -374h-326zM682 152l436 374l-436 375h326l424 -375l-424 -374h-326z" />
<glyph unicode="&#xbf;" horiz-adv-x="1101" d="M147 162q0 69 24 128.5t62 102.5t84 82.5t92.5 75.5t84.5 72.5t62 83.5t24 100h225q0 -76 -23.5 -140t-61 -108.5t-82.5 -82.5t-90 -70t-82.5 -62.5t-61 -67.5t-23.5 -79q0 -80 79 -135.5t199 -55.5q170 0 340 123l86 -199q-219 -137 -460 -137q-133 0 -239.5 41 t-172.5 126t-66 202zM516 1145q0 76 50 123t124 47q72 0 121 -47t49 -123q0 -78 -49 -126t-121 -48q-74 0 -124 48t-50 126z" />
<glyph unicode="&#xc0;" d="M61 10l543 1424h268l543 -1424l-250 -28l-149 403h-557l-150 -403zM459 1995l241 10q108 -211 142 -387h-217q-48 164 -166 377zM530 580h416l-209 563z" />
<glyph unicode="&#xc1;" d="M61 10l543 1424h268l543 -1424l-250 -28l-149 403h-557l-150 -403zM530 580h416l-209 563zM659 1618q34 176 142 387l241 -10q-116 -209 -165 -377h-218z" />
<glyph unicode="&#xc2;" d="M61 10l543 1424h268l543 -1424l-250 -28l-149 403h-557l-150 -403zM442 1622q67 69 131 172.5t60 165.5h252q-4 -62 58.5 -165.5t127.5 -172.5h-213q-34 45 -100 170q-55 -111 -99 -170h-217zM530 580h416l-209 563z" />
<glyph unicode="&#xc3;" d="M61 10l543 1424h268l543 -1424l-250 -28l-149 403h-557l-150 -403zM377 1761q69 71 130.5 103.5t108.5 31.5t90.5 -16t82.5 -34t77 -28t82.5 7.5t91.5 66.5l117 -127q-66 -68 -127 -99.5t-107.5 -31t-90.5 14.5t-84 31.5t-78.5 25.5t-83 -8.5t-90.5 -65.5zM530 580h416 l-209 563z" />
<glyph unicode="&#xc4;" d="M61 10l543 1424h268l543 -1424l-250 -28l-149 403h-557l-150 -403zM414 1780q0 64 40.5 101.5t102.5 37.5q61 0 101 -37.5t40 -101.5q0 -62 -40.5 -100t-100.5 -38q-61 0 -102 38t-41 100zM530 580h416l-209 563zM809 1780q0 64 40 101.5t101 37.5q63 0 103.5 -37.5 t40.5 -101.5q0 -62 -40.5 -100t-103.5 -38q-60 0 -100.5 38t-40.5 100z" />
<glyph unicode="&#xc5;" d="M61 10l543 1424h268l543 -1424l-250 -28l-149 403h-557l-150 -403zM502 1815q0 106 75.5 179.5t182.5 73.5q105 0 180.5 -74t75.5 -179t-74.5 -178.5t-181.5 -73.5t-182.5 74t-75.5 178zM530 580h416l-209 563zM653 1815q0 -44 31 -76.5t76 -32.5q43 0 73.5 32.5 t30.5 76.5q0 45 -30 77.5t-74 32.5q-45 0 -76 -32.5t-31 -77.5z" />
<glyph unicode="&#xc6;" horiz-adv-x="1935" d="M61 12l695 1422h1040v-207h-651v-389h618v-207h-618v-424h659v-207h-917v297h-410l-143 -307zM578 504h309l4 680z" />
<glyph unicode="&#xc7;" horiz-adv-x="1394" d="M80 713q0 135 43 255.5t119 211.5t177 157.5t219.5 101t242.5 34.5q239 0 432 -125l-27 -224q-175 125 -387 125q-147 0 -275 -65.5t-208 -189t-80 -277.5q0 -153 79 -275t207.5 -187t278.5 -65q203 0 383 111l29 -219q-198 -115 -432 -115q-51 0 -101 6l-18 -71 q89 -6 136.5 -54.5t47.5 -119.5q0 -82 -56.5 -133.5t-144.5 -51.5q-50 0 -93 19t-68 53l37 78q51 -51 112 -51q43 0 70.5 23t27.5 61q0 39 -27.5 62.5t-76.5 23.5q-45 0 -78 -21l-8 64l37 135q-126 30 -234 93t-189.5 154t-128 214t-46.5 262z" />
<glyph unicode="&#xc8;" horiz-adv-x="1202" d="M145 0v1434h916v-213h-664v-377h621v-213h-621v-418h674v-213h-926zM313 2001l242 10q104 -195 143 -387h-219q-48 175 -166 377z" />
<glyph unicode="&#xc9;" horiz-adv-x="1202" d="M145 0v1434h916v-213h-664v-377h621v-213h-621v-418h674v-213h-926zM504 1624q39 192 143 387l242 -10q-113 -193 -166 -377h-219z" />
<glyph unicode="&#xca;" horiz-adv-x="1202" d="M145 0v1434h916v-213h-664v-377h621v-213h-621v-418h674v-213h-926zM281 1624q65 65 128.5 169t59.5 167h254q-4 -62 59 -166t127 -170h-215q-44 56 -98 170q-62 -121 -100 -170h-215z" />
<glyph unicode="&#xcb;" horiz-adv-x="1202" d="M145 0v1434h916v-213h-664v-377h621v-213h-621v-418h674v-213h-926zM254 1782q0 64 40.5 101.5t102.5 37.5q61 0 101.5 -37.5t40.5 -101.5q0 -61 -41 -99t-101 -38q-61 0 -102 37.5t-41 99.5zM651 1782q0 64 40 101.5t100 37.5q63 0 103 -37t40 -102q0 -62 -40 -99.5 t-103 -37.5q-60 0 -100 37.5t-40 99.5z" />
<glyph unicode="&#xcc;" horiz-adv-x="538" d="M-23 2001q118 -213 166 -377h217q-34 179 -141 387zM154 0v1434h252v-1434h-252z" />
<glyph unicode="&#xcd;" horiz-adv-x="528" d="M145 0v1434h252v-1434h-252zM168 1618h217q51 177 168 377l-242 10q-108 -203 -143 -387z" />
<glyph unicode="&#xce;" horiz-adv-x="526" d="M-41 1624q65 67 128.5 170.5t59.5 165.5h252q-4 -63 60 -167t129 -169h-215q-41 52 -101 170q-50 -106 -98 -170h-215zM145 0v1434h252v-1434h-252z" />
<glyph unicode="&#xcf;" horiz-adv-x="524" d="M-74 1782q0 64 40.5 101.5t103.5 37.5q61 0 101 -37.5t40 -101.5q0 -62 -40.5 -99.5t-100.5 -37.5q-63 0 -103.5 37.5t-40.5 99.5zM139 0v1434h252v-1434h-252zM322 1782q0 64 40 101.5t101 37.5q62 0 102.5 -37.5t40.5 -101.5q0 -62 -41 -99.5t-102 -37.5 q-60 0 -100.5 37.5t-40.5 99.5z" />
<glyph unicode="&#xd0;" horiz-adv-x="1472" d="M63 651v183h95v600h561q130 0 241 -39.5t189.5 -108t134 -159.5t82.5 -193.5t27 -210.5q0 -109 -27.5 -213.5t-83.5 -196.5t-135 -162t-189.5 -110.5t-238.5 -40.5h-561v651h-95zM412 213h233q123 0 219 39.5t154.5 109.5t88.5 159.5t30 195.5q0 85 -18.5 159.5 t-57.5 138t-96.5 109.5t-139 71.5t-180.5 25.5h-233v-387h401v-183h-401v-438z" />
<glyph unicode="&#xd1;" horiz-adv-x="1503" d="M145 0v1434h191l774 -985v985h246v-1434h-191l-774 985v-985h-246zM346 1751q69 71 131 103.5t109 31.5t90.5 -16t82.5 -34t77.5 -28t83.5 7.5t92 66.5l116 -127q-67 -68 -128 -99.5t-108 -31t-91 14.5t-83.5 31.5t-78.5 25.5t-83.5 -8.5t-90.5 -65.5z" />
<glyph unicode="&#xd2;" horiz-adv-x="1675" d="M80 717q0 208 101 381t275 272.5t382 99.5q156 0 296.5 -59t241.5 -159t160 -239.5t59 -295.5q0 -155 -59 -294.5t-160 -240.5t-241.5 -160t-296.5 -59t-296 59t-241.5 160t-161 240.5t-59.5 294.5zM336 717q0 -142 62 -263t178 -195.5t260 -74.5q144 1 260.5 75 t179.5 195.5t63 262.5t-63 262.5t-179.5 195.5t-260.5 74q-109 0 -203 -43.5t-158.5 -116.5t-101.5 -169.5t-37 -202.5zM510 2001q117 -200 168 -377h217q-34 179 -141 387z" />
<glyph unicode="&#xd3;" horiz-adv-x="1675" d="M80 717q0 208 101 381t275 272.5t382 99.5q156 0 296.5 -59t241.5 -159t160 -239.5t59 -295.5q0 -155 -59 -294.5t-160 -240.5t-241.5 -160t-296.5 -59t-296 59t-241.5 160t-161 240.5t-59.5 294.5zM336 717q0 -142 62 -263t178 -195.5t260 -74.5q144 1 260.5 75 t179.5 195.5t63 262.5t-63 262.5t-179.5 195.5t-260.5 74q-109 0 -203 -43.5t-158.5 -116.5t-101.5 -169.5t-37 -202.5zM713 1618h219q53 184 166 377l-242 10q-104 -195 -143 -387z" />
<glyph unicode="&#xd4;" horiz-adv-x="1675" d="M80 717q0 208 101 381t275 272.5t382 99.5q156 0 296.5 -59t241.5 -159t160 -239.5t59 -295.5q0 -155 -59 -294.5t-160 -240.5t-241.5 -160t-296.5 -59t-296 59t-241.5 160t-161 240.5t-59.5 294.5zM336 717q0 -142 62 -263t178 -195.5t260 -74.5q144 1 260.5 75 t179.5 195.5t63 262.5t-63 262.5t-179.5 195.5t-260.5 74q-109 0 -203 -43.5t-158.5 -116.5t-101.5 -169.5t-37 -202.5zM506 1624q66 66 130 169.5t60 166.5h252q-4 -62 59 -166t128 -170h-213q-41 52 -101 170q-54 -114 -98 -170h-217z" />
<glyph unicode="&#xd5;" horiz-adv-x="1675" d="M80 717q0 208 101 381t275 272.5t382 99.5q156 0 296.5 -59t241.5 -159t160 -239.5t59 -295.5q0 -155 -59 -294.5t-160 -240.5t-241.5 -160t-296.5 -59t-296 59t-241.5 160t-161 240.5t-59.5 294.5zM336 717q0 -142 62 -263t178 -195.5t260 -74.5q144 1 260.5 75 t179.5 195.5t63 262.5t-63 262.5t-179.5 195.5t-260.5 74q-109 0 -203 -43.5t-158.5 -116.5t-101.5 -169.5t-37 -202.5zM436 1751l119 -129q46 49 90.5 65.5t83.5 8.5t79 -25.5t84 -31.5t91 -14.5t108 31t128 99.5l-117 127q-47 -50 -92 -66.5t-83.5 -7.5t-77.5 28t-82.5 34 t-90.5 16t-109 -31.5t-131 -103.5z" />
<glyph unicode="&#xd6;" horiz-adv-x="1675" d="M80 717q0 208 101 381t275 272.5t382 99.5q156 0 296.5 -59t241.5 -159t160 -239.5t59 -295.5q0 -155 -59 -294.5t-160 -240.5t-241.5 -160t-296.5 -59t-296 59t-241.5 160t-161 240.5t-59.5 294.5zM336 717q0 -142 62 -263t178 -195.5t260 -74.5q144 1 260.5 75 t179.5 195.5t63 262.5t-63 262.5t-179.5 195.5t-260.5 74q-109 0 -203 -43.5t-158.5 -116.5t-101.5 -169.5t-37 -202.5zM481 1782q0 64 41 101.5t103 37.5q61 0 101 -37.5t40 -101.5q0 -62 -40.5 -99.5t-100.5 -37.5q-61 0 -102.5 37.5t-41.5 99.5zM879 1782 q0 64 39.5 101.5t99.5 37.5q63 0 104 -37.5t41 -101.5q0 -62 -41 -99.5t-104 -37.5q-60 0 -99.5 37.5t-39.5 99.5z" />
<glyph unicode="&#xd7;" horiz-adv-x="1144" d="M176 467l236 231l-232 230l172 159l226 -223l227 223l174 -157l-236 -232l234 -231l-172 -158l-227 226l-228 -226z" />
<glyph unicode="&#xd8;" horiz-adv-x="1675" d="M80 717q0 208 101 381t275 272.5t382 99.5q74 0 141 -12l63 180h246l-90 -256q182 -97 289.5 -273.5t107.5 -391.5q0 -155 -59 -294.5t-160 -240.5t-241.5 -160t-296.5 -59q-63 0 -131 10l-64 -178h-246l88 252q-184 95 -294.5 274t-110.5 396zM336 717 q0 -138 60.5 -257.5t166.5 -193.5l342 979q-46 4 -69 4q-109 0 -203 -43.5t-158.5 -116.5t-101.5 -169.5t-37 -202.5zM780 186q18 -2 56 -2q144 1 260.5 75t179.5 195.5t63 262.5q0 134 -58 251.5t-161 190.5z" />
<glyph unicode="&#xd9;" horiz-adv-x="1404" d="M106 553v881h252v-895q0 -111 51 -192.5t127.5 -119.5t165.5 -37q89 0 165 38.5t126.5 119.5t50.5 191v895h254v-881q0 -138 -51 -252t-135.5 -186t-189.5 -111t-217 -39q-114 0 -220 39t-191 111t-136.5 186t-51.5 252zM403 2001q113 -193 166 -377h217 q-36 190 -141 387z" />
<glyph unicode="&#xda;" horiz-adv-x="1404" d="M106 553v881h252v-895q0 -111 51 -192.5t127.5 -119.5t165.5 -37q89 0 165 38.5t126.5 119.5t50.5 191v895h254v-881q0 -138 -51 -252t-135.5 -186t-189.5 -111t-217 -39q-114 0 -220 39t-191 111t-136.5 186t-51.5 252zM643 1624h217q51 177 168 377l-242 10 q-104 -195 -143 -387z" />
<glyph unicode="&#xdb;" horiz-adv-x="1404" d="M106 553v881h252v-895q0 -111 51 -192.5t127.5 -119.5t165.5 -37q89 0 165 38.5t126.5 119.5t50.5 191v895h254v-881q0 -138 -51 -252t-135.5 -186t-189.5 -111t-217 -39q-114 0 -220 39t-191 111t-136.5 186t-51.5 252zM410 1624q65 65 128.5 169t59.5 167h254 q-4 -62 59 -166t127 -170h-215q-44 56 -98 170q-62 -121 -100 -170h-215z" />
<glyph unicode="&#xdc;" horiz-adv-x="1404" d="M106 553v881h252v-895q0 -111 51 -192.5t127.5 -119.5t165.5 -37q89 0 165 38.5t126.5 119.5t50.5 191v895h254v-881q0 -138 -51 -252t-135.5 -186t-189.5 -111t-217 -39q-114 0 -220 39t-191 111t-136.5 186t-51.5 252zM385 1782q0 64 40.5 101.5t102.5 37.5 q61 0 101.5 -37.5t40.5 -101.5q0 -61 -41 -99t-101 -38q-61 0 -102 37.5t-41 99.5zM782 1782q0 64 40 101.5t100 37.5q63 0 103 -37t40 -102q0 -62 -40 -99.5t-103 -37.5q-60 0 -100 37.5t-40 99.5z" />
<glyph unicode="&#xdd;" horiz-adv-x="1349" d="M53 1395l240 67l383 -712l379 712l243 -65l-493 -910v-487h-252v487zM559 1604h219q52 182 166 376l-242 11q-104 -195 -143 -387z" />
<glyph unicode="&#xde;" horiz-adv-x="1210" d="M143 0v1434h254v-242h285q110 0 199 -39t144.5 -105t84.5 -147.5t29 -169.5q0 -70 -18 -136.5t-55.5 -126t-90.5 -104t-128.5 -70.5t-164.5 -26h-285v-268h-254zM397 473h224q124 0 192 76t68 180q0 106 -68.5 183t-191.5 77h-224v-516z" />
<glyph unicode="&#xdf;" horiz-adv-x="1284" d="M145 0v1010q0 121 36 213t97.5 145.5t135.5 80t159 26.5q169 0 279.5 -88t110.5 -246q0 -60 -19 -118t-42.5 -95.5t-42.5 -81.5t-19 -80q0 -38 20 -72t52.5 -61t71.5 -54.5t78 -59t71.5 -67.5t52.5 -86.5t20 -109.5q0 -136 -94 -213.5t-238 -77.5q-181 0 -368 111l69 198 q54 -41 129 -69t138 -31q57 -2 91 23t34 75q0 35 -19.5 65.5t-50.5 55t-68.5 49.5t-75 54t-68 62.5t-49.5 81t-18 103.5q0 51 17 102t37.5 85.5t37.5 79t17 84.5q0 73 -44 114t-120 41q-80 0 -125 -48t-45 -140v-1061h-248z" />
<glyph unicode="&#xe0;" horiz-adv-x="1189" d="M74 299q0 106 58.5 184.5t151 116t203.5 37.5q94 0 182 -29t150 -92v107q0 114 -89 177.5t-230 63.5q-154 0 -301 -78l-54 191q203 86 394 86q222 0 366 -111t144 -305v-319q0 -163 59 -328h-246q-16 54 -26 125q-62 -82 -159 -122t-200 -40q-107 0 -197 37.5t-148 115.5 t-58 183zM305 301q0 -59 36 -99.5t86 -56.5t110 -16q106 0 189 49t83 127q0 74 -78.5 122t-185.5 48q-60 0 -112 -15.5t-90 -56.5t-38 -102zM311 1591l244 11q106 -207 141 -388h-217q-51 177 -168 377z" />
<glyph unicode="&#xe1;" horiz-adv-x="1189" d="M74 299q0 106 58.5 184.5t151 116t203.5 37.5q94 0 182 -29t150 -92v107q0 114 -89 177.5t-230 63.5q-154 0 -301 -78l-54 191q203 86 394 86q222 0 366 -111t144 -305v-319q0 -163 59 -328h-246q-16 54 -26 125q-62 -82 -159 -122t-200 -40q-107 0 -197 37.5t-148 115.5 t-58 183zM305 301q0 -59 36 -99.5t86 -56.5t110 -16q106 0 189 49t83 127q0 74 -78.5 122t-185.5 48q-60 0 -112 -15.5t-90 -56.5t-38 -102zM457 1214q35 181 141 388l244 -11q-117 -200 -168 -377h-217z" />
<glyph unicode="&#xe2;" horiz-adv-x="1189" d="M74 299q0 106 58.5 184.5t151 116t203.5 37.5q94 0 182 -29t150 -92v107q0 114 -89 177.5t-230 63.5q-154 0 -301 -78l-54 191q203 86 394 86q222 0 366 -111t144 -305v-319q0 -163 59 -328h-246q-16 54 -26 125q-62 -82 -159 -122t-200 -40q-107 0 -197 37.5t-148 115.5 t-58 183zM266 1214q66 66 130.5 170t60.5 166h252q-4 -63 59.5 -167t128.5 -169h-215q-38 49 -100 170q-53 -111 -99 -170h-217zM305 301q0 -59 36 -99.5t86 -56.5t110 -16q106 0 189 49t83 127q0 74 -78.5 122t-185.5 48q-60 0 -112 -15.5t-90 -56.5t-38 -102z" />
<glyph unicode="&#xe3;" horiz-adv-x="1189" d="M74 299q0 106 58.5 184.5t151 116t203.5 37.5q94 0 182 -29t150 -92v107q0 114 -89 177.5t-230 63.5q-154 0 -301 -78l-54 191q203 86 394 86q222 0 366 -111t144 -305v-319q0 -163 59 -328h-246q-16 54 -26 125q-62 -82 -159 -122t-200 -40q-107 0 -197 37.5t-148 115.5 t-58 183zM186 1341q69 71 131 103.5t109 31.5t90.5 -15.5t83 -33.5t78 -28t83 7.5t91.5 66.5l117 -127q-67 -68 -128 -99.5t-108 -31t-90.5 14t-83.5 31t-79 26t-84 -8.5t-91 -66zM305 301q0 -59 36 -99.5t86 -56.5t110 -16q106 0 189 49t83 127q0 74 -78.5 122t-185.5 48 q-60 0 -112 -15.5t-90 -56.5t-38 -102z" />
<glyph unicode="&#xe4;" horiz-adv-x="1189" d="M74 299q0 106 58.5 184.5t151 116t203.5 37.5q94 0 182 -29t150 -92v107q0 114 -89 177.5t-230 63.5q-154 0 -301 -78l-54 191q203 86 394 86q222 0 366 -111t144 -305v-319q0 -163 59 -328h-246q-16 54 -26 125q-62 -82 -159 -122t-200 -40q-107 0 -197 37.5t-148 115.5 t-58 183zM242 1372q0 64 41 101.5t104 37.5q59 0 99 -37.5t40 -101.5q0 -61 -40 -99t-99 -38q-63 0 -104 37.5t-41 99.5zM305 301q0 -59 36 -99.5t86 -56.5t110 -16q106 0 189 49t83 127q0 74 -78.5 122t-185.5 48q-60 0 -112 -15.5t-90 -56.5t-38 -102zM639 1372 q0 64 40 101.5t99 37.5q63 0 104.5 -37.5t41.5 -101.5q0 -62 -41.5 -99.5t-104.5 -37.5q-59 0 -99 38t-40 99z" />
<glyph unicode="&#xe5;" horiz-adv-x="1189" d="M74 299q0 106 58.5 184.5t151 116t203.5 37.5q94 0 182 -29t150 -92v107q0 114 -89 177.5t-230 63.5q-154 0 -301 -78l-54 191q203 86 394 86q222 0 366 -111t144 -305v-319q0 -163 59 -328h-246q-16 54 -26 125q-62 -82 -159 -122t-200 -40q-107 0 -197 37.5t-148 115.5 t-58 183zM305 301q0 -59 36 -99.5t86 -56.5t110 -16q106 0 189 49t83 127q0 74 -78.5 122t-185.5 48q-60 0 -112 -15.5t-90 -56.5t-38 -102zM317 1405q0 106 75.5 180t182.5 74q106 0 181 -74t75 -180q0 -105 -74 -178.5t-182 -73.5q-107 0 -182.5 74t-75.5 178zM471 1405 q0 -44 29.5 -76.5t74.5 -32.5q44 0 74.5 33t30.5 76q0 45 -30.5 78t-74.5 33q-45 0 -74.5 -33t-29.5 -78z" />
<glyph unicode="&#xe6;" horiz-adv-x="1896" d="M74 305q0 79 33 143t88 104t124.5 61.5t145.5 21.5q100 0 189.5 -33.5t148.5 -99.5v119q0 112 -90.5 179.5t-229.5 67.5q-157 0 -299 -82l-51 181q215 90 389 90q139 0 246 -52t168 -145q67 90 177.5 143.5t227.5 53.5q71 0 139 -20t129.5 -62t108.5 -101t75 -143.5 t30 -183.5l-2 -49h-787q17 -155 116 -246.5t253 -91.5q152 0 350 106l47 -180q-202 -119 -399 -119q-143 0 -266.5 64t-196.5 176q-60 -120 -181.5 -182t-260.5 -62q-116 0 -210 38t-153 117t-59 187zM301 307q0 -88 70.5 -133t167.5 -45q105 0 188.5 50t83.5 130t-79 127 t-189 47q-62 0 -114 -16t-90 -57t-38 -103zM1040 610h570q-12 122 -91.5 195.5t-187.5 73.5t-191 -74t-100 -195z" />
<glyph unicode="&#xe7;" horiz-adv-x="1062" d="M78 508q0 131 47 237.5t127 174.5t183.5 104.5t219.5 36.5q185 0 336 -84l-39 -197q-46 37 -117.5 60.5t-150.5 23.5q-154 0 -255 -94.5t-101 -259.5t100.5 -258.5t255.5 -93.5q78 0 150.5 24t121.5 60l39 -193q-144 -90 -340 -90h-39l-14 -57q89 -6 136.5 -54.5 t47.5 -119.5q0 -82 -56 -133.5t-144 -51.5q-50 0 -93.5 19.5t-68.5 52.5l37 78q51 -51 112 -51q43 0 71 23t28 61q0 39 -28 62.5t-77 23.5q-45 0 -78 -21l-8 64l31 118q-193 40 -313.5 179.5t-120.5 355.5z" />
<glyph unicode="&#xe8;" horiz-adv-x="1236" d="M78 516q0 107 31.5 198.5t84.5 155t122.5 108.5t146 66t155.5 21q140 0 254.5 -60t187 -181.5t77.5 -286.5v-82h-811q20 -139 116.5 -219t241.5 -80q182 0 373 110l47 -188q-224 -119 -442 -119q-119 0 -224.5 37.5t-185.5 106.5t-127 175.5t-47 237.5zM332 618h583 q-14 110 -93.5 182t-192.5 72q-108 0 -189.5 -70t-107.5 -184zM348 1591l242 11q104 -197 141 -388h-217q-53 184 -166 377z" />
<glyph unicode="&#xe9;" horiz-adv-x="1216" d="M78 516q0 107 31.5 198.5t84.5 155t122.5 108.5t146 66t155.5 21q140 0 254.5 -60t187 -181.5t77.5 -286.5v-82h-811q20 -139 116.5 -219t241.5 -80q182 0 373 110l47 -188q-224 -119 -442 -119q-119 0 -224.5 37.5t-185.5 106.5t-127 175.5t-47 237.5zM332 618h583 q-14 110 -93.5 182t-192.5 72q-108 0 -189.5 -70t-107.5 -184zM522 1214q34 177 142 388l243 -11q-117 -200 -168 -377h-217z" />
<glyph unicode="&#xea;" horiz-adv-x="1236" d="M78 516q0 107 31.5 198.5t84.5 155t122.5 108.5t146 66t155.5 21q140 0 254.5 -60t187 -181.5t77.5 -286.5v-82h-811q20 -139 116.5 -219t241.5 -80q182 0 373 110l47 -188q-224 -119 -442 -119q-119 0 -224.5 37.5t-185.5 106.5t-127 175.5t-47 237.5zM326 1214 q65 67 128.5 170.5t59.5 165.5h252q-4 -63 59.5 -167t128.5 -169h-215q-28 38 -100 170q-50 -106 -98 -170h-215zM332 618h583q-14 110 -93.5 182t-192.5 72q-108 0 -189.5 -70t-107.5 -184z" />
<glyph unicode="&#xeb;" horiz-adv-x="1236" d="M78 516q0 107 31.5 198.5t84.5 155t122.5 108.5t146 66t155.5 21q140 0 254.5 -60t187 -181.5t77.5 -286.5v-82h-811q20 -139 116.5 -219t241.5 -80q182 0 373 110l47 -188q-224 -119 -442 -119q-119 0 -224.5 37.5t-185.5 106.5t-127 175.5t-47 237.5zM291 1372 q0 64 41 101.5t104 37.5q60 0 99.5 -37.5t39.5 -101.5q0 -62 -39.5 -99.5t-99.5 -37.5q-63 0 -104 37.5t-41 99.5zM332 618h583q-14 110 -93.5 182t-192.5 72q-108 0 -189.5 -70t-107.5 -184zM688 1372q0 64 40 101.5t101 37.5q62 0 103 -37.5t41 -101.5q0 -62 -41.5 -99.5 t-102.5 -37.5q-60 0 -100.5 37.5t-40.5 99.5z" />
<glyph unicode="&#xec;" horiz-adv-x="436" d="M-10 1591q117 -200 168 -377h217q-34 177 -142 388zM141 0v1024h244v-1024h-244z" />
<glyph unicode="&#xed;" horiz-adv-x="473" d="M104 0v1024h242v-1024h-242zM121 1214h209q51 167 170 340h-260q-89 -171 -119 -340z" />
<glyph unicode="&#xee;" horiz-adv-x="432" d="M-100 1214q65 65 128.5 169t59.5 167h254q-4 -62 59 -166t127 -170h-213q-49 62 -100 170q-62 -121 -98 -170h-217zM94 0v1024h246v-1024h-246z" />
<glyph unicode="&#xef;" horiz-adv-x="647" d="M27 1343q0 58 38 92.5t95 34.5t94 -34t37 -93q0 -58 -37 -92t-94 -34t-95 34t-38 92zM188 0v1024h246v-1024h-246zM395 1343q0 58 36.5 92.5t92.5 34.5q58 0 95.5 -34t37.5 -93t-37 -92.5t-96 -33.5q-56 0 -92.5 34t-36.5 92z" />
<glyph unicode="&#xf0;" horiz-adv-x="1228" d="M113 496q0 223 144.5 371t360.5 151q60 0 125 -21l-81 152l-246 -57l-27 120l211 50l-76 143h238l51 -92l221 51l29 -119l-186 -45q132 -243 215 -412q69 -141 69 -290q2 -154 -65.5 -277.5t-186 -192.5t-262.5 -69q-146 0 -268.5 69.5t-194 193t-71.5 274.5zM346 496 q0 -142 86.5 -231t210.5 -89q122 0 206.5 89.5t84.5 226.5q0 136 -86 226.5t-209 90.5q-122 0 -207.5 -87t-85.5 -226z" />
<glyph unicode="&#xf1;" horiz-adv-x="1269" d="M88 1024h229q23 -85 41 -197q60 114 158.5 172t218.5 58q83 0 156 -28t132.5 -84t94.5 -152t35 -220v-573h-246v543q0 153 -71 227t-177 74q-124 0 -206 -97t-82 -276v-471h-246v696q0 206 -37 328zM244 1341q69 71 130.5 104t108.5 32t90.5 -15.5t82.5 -33t77 -28 t82.5 7.5t91.5 67l117 -129q-67 -68 -128 -99.5t-107.5 -31t-90.5 14t-84 31t-78.5 26t-83 -8.5t-90.5 -66z" />
<glyph unicode="&#xf2;" horiz-adv-x="1263" d="M78 512q0 162 77 290t202.5 195.5t273.5 67.5q149 0 274.5 -67.5t202 -195.5t76.5 -290q0 -165 -75.5 -292.5t-200.5 -194t-277 -66.5q-148 0 -273.5 67.5t-202.5 195.5t-77 290zM326 512q0 -159 85.5 -257.5t217.5 -98.5q131 0 219 99.5t88 256.5q0 158 -87 257t-218 99 t-218 -99t-87 -257zM373 1591q117 -200 168 -377h217q-35 182 -144 388z" />
<glyph unicode="&#xf3;" horiz-adv-x="1263" d="M78 512q0 162 77 290t202.5 195.5t273.5 67.5q149 0 274.5 -67.5t202 -195.5t76.5 -290q0 -165 -75.5 -292.5t-200.5 -194t-277 -66.5q-148 0 -273.5 67.5t-202.5 195.5t-77 290zM326 512q0 -159 85.5 -257.5t217.5 -98.5q131 0 219 99.5t88 256.5q0 158 -87 257t-218 99 t-218 -99t-87 -257zM516 1214h219q53 184 166 377l-242 11q-103 -195 -143 -388z" />
<glyph unicode="&#xf4;" horiz-adv-x="1263" d="M78 512q0 162 77 290t202.5 195.5t273.5 67.5q149 0 274.5 -67.5t202 -195.5t76.5 -290q0 -165 -75.5 -292.5t-200.5 -194t-277 -66.5q-148 0 -273.5 67.5t-202.5 195.5t-77 290zM313 1214q66 66 130.5 170t60.5 166h252q-4 -63 59.5 -167t128.5 -169h-215 q-38 49 -100 170q-53 -111 -99 -170h-217zM326 512q0 -159 85.5 -257.5t217.5 -98.5q131 0 219 99.5t88 256.5q0 158 -87 257t-218 99t-218 -99t-87 -257z" />
<glyph unicode="&#xf5;" horiz-adv-x="1263" d="M78 512q0 162 77 290t202.5 195.5t273.5 67.5q149 0 274.5 -67.5t202 -195.5t76.5 -290q0 -165 -75.5 -292.5t-200.5 -194t-277 -66.5q-148 0 -273.5 67.5t-202.5 195.5t-77 290zM246 1341l119 -129q46 49 90.5 66t83 8.5t78.5 -26t84 -31t90.5 -14t107.5 31t127 99.5 l-117 127q-47 -50 -91.5 -66.5t-82.5 -7.5t-77 28t-82.5 33.5t-90.5 15.5t-108.5 -31.5t-130.5 -103.5zM326 512q0 -159 85.5 -257.5t217.5 -98.5q131 0 219 99.5t88 256.5q0 158 -87 257t-218 99t-218 -99t-87 -257z" />
<glyph unicode="&#xf6;" horiz-adv-x="1263" d="M78 512q0 162 77 290t202.5 195.5t273.5 67.5q149 0 274.5 -67.5t202 -195.5t76.5 -290q0 -165 -75.5 -292.5t-200.5 -194t-277 -66.5q-148 0 -273.5 67.5t-202.5 195.5t-77 290zM289 1372q0 64 41 101.5t104 37.5q59 0 99 -37.5t40 -101.5q0 -61 -40 -99t-99 -38 q-63 0 -104 37.5t-41 99.5zM326 512q0 -159 85.5 -257.5t217.5 -98.5q131 0 219 99.5t88 256.5q0 158 -87 257t-218 99t-218 -99t-87 -257zM686 1372q0 64 40 101.5t99 37.5q63 0 104.5 -37.5t41.5 -101.5q0 -62 -41.5 -99.5t-104.5 -37.5q-59 0 -99 38t-40 99z" />
<glyph unicode="&#xf7;" horiz-adv-x="1222" d="M156 557v201h909v-201h-909zM463 297q0 56 41 96.5t98 40.5t97 -40.5t40 -96.5q0 -57 -40 -97t-97 -40t-98 40t-41 97zM463 1018q0 56 41 96.5t98 40.5t97 -40.5t40 -96.5q0 -57 -40 -97t-97 -40t-98 40t-41 97z" />
<glyph unicode="&#xf8;" horiz-adv-x="1263" d="M78 512q0 162 77 290t202.5 195.5t273.5 67.5q63 0 121 -12l57 127l242 2l-95 -217q105 -73 166.5 -190.5t61.5 -262.5q0 -165 -75.5 -292.5t-200.5 -194t-277 -66.5q-51 0 -113 10l-59 -135h-246l98 221q-108 75 -170.5 193t-62.5 264zM326 512q0 -152 77 -248l267 602 q-12 2 -39 2q-131 0 -218 -99t-87 -257zM600 158q10 -2 29 -2q131 0 219 99.5t88 256.5q0 147 -74 240z" />
<glyph unicode="&#xf9;" horiz-adv-x="1275" d="M125 444v580h246l2 -524q0 -156 64.5 -230.5t166.5 -74.5q117 0 186.5 95t69.5 283v451h246v-696q0 -180 53 -328h-225q-36 90 -51 219q-55 -125 -149 -188.5t-218 -63.5q-60 0 -114 14.5t-105.5 50t-89 88.5t-60 136.5t-22.5 187.5zM340 1591l242 11q104 -197 141 -388 h-217q-53 184 -166 377z" />
<glyph unicode="&#xfa;" horiz-adv-x="1275" d="M125 444v580h246l2 -524q0 -156 64.5 -230.5t166.5 -74.5q117 0 186.5 95t69.5 283v451h246v-696q0 -180 53 -328h-225q-36 90 -51 219q-55 -125 -149 -188.5t-218 -63.5q-60 0 -114 14.5t-105.5 50t-89 88.5t-60 136.5t-22.5 187.5zM535 1214q35 181 141 388l244 -11 q-117 -200 -168 -377h-217z" />
<glyph unicode="&#xfb;" horiz-adv-x="1275" d="M125 444v580h246l2 -524q0 -156 64.5 -230.5t166.5 -74.5q117 0 186.5 95t69.5 283v451h246v-696q0 -180 53 -328h-225q-36 90 -51 219q-55 -125 -149 -188.5t-218 -63.5q-60 0 -114 14.5t-105.5 50t-89 88.5t-60 136.5t-22.5 187.5zM315 1214q66 66 130.5 170t60.5 166 h252q-4 -63 59.5 -167t128.5 -169h-215q-38 49 -100 170q-53 -111 -99 -170h-217z" />
<glyph unicode="&#xfc;" horiz-adv-x="1275" d="M125 444v580h246l2 -524q0 -156 64.5 -230.5t166.5 -74.5q117 0 186.5 95t69.5 283v451h246v-696q0 -180 53 -328h-225q-36 90 -51 219q-55 -125 -149 -188.5t-218 -63.5q-60 0 -114 14.5t-105.5 50t-89 88.5t-60 136.5t-22.5 187.5zM295 1372q0 65 40 102t103 37 q60 0 100 -37.5t40 -101.5q0 -62 -40 -99.5t-100 -37.5q-63 0 -103 37.5t-40 99.5zM690 1372q0 64 40 101.5t101 37.5q62 0 103 -37.5t41 -101.5q0 -62 -41.5 -99.5t-102.5 -37.5q-60 0 -100.5 37.5t-40.5 99.5z" />
<glyph unicode="&#xfd;" horiz-adv-x="1150" d="M33 1004l254 40l295 -851l292 851l244 -40l-442 -1108q-111 -276 -244 -373l-194 108q76 57 124 141t91 201zM494 1214q35 185 143 388l242 -11q-117 -200 -168 -377h-217z" />
<glyph unicode="&#xfe;" horiz-adv-x="1312" d="M137 -379v1813h246v-572q59 95 151 146t199 51q99 0 187.5 -35t159 -101t112 -172.5t41.5 -238.5q0 -131 -41.5 -236.5t-111.5 -171.5t-157.5 -100.5t-183.5 -34.5q-109 0 -202.5 48.5t-153.5 140.5v-537h-246zM387 512q0 -161 88.5 -250.5t212.5 -89.5q122 0 210.5 90.5 t88.5 249.5q0 161 -88 251.5t-211 90.5q-124 0 -212.5 -91t-88.5 -251z" />
<glyph unicode="&#xff;" horiz-adv-x="1150" d="M33 1004l254 40l295 -851l292 851l244 -40l-442 -1108q-111 -276 -244 -373l-194 108q76 57 124 141t91 201zM248 1372q0 64 40.5 101.5t102.5 37.5q61 0 101 -37.5t40 -101.5q0 -62 -40.5 -99.5t-100.5 -37.5q-61 0 -102 37.5t-41 99.5zM645 1372q0 64 39.5 101.5 t99.5 37.5q63 0 103.5 -37.5t40.5 -101.5q0 -62 -40.5 -99.5t-103.5 -37.5q-60 0 -99.5 37.5t-39.5 99.5z" />
<glyph unicode="&#x152;" horiz-adv-x="2109" d="M80 723q0 108 27 210.5t83 193.5t135 159.5t190 108t241 39.5h1206v-207h-651v-389h608v-207h-608v-424h651v-207h-1206q-128 0 -238.5 40.5t-190 110.5t-136 162t-84 196.5t-27.5 213.5zM330 717q0 -106 30 -196t89 -159.5t154.5 -109t217.5 -39.5h242v1008h-242 q-123 0 -218 -39t-154 -108.5t-89 -159.5t-30 -197z" />
<glyph unicode="&#x153;" horiz-adv-x="2078" d="M78 512q0 159 76.5 284.5t203.5 193t279 67.5q135 0 251.5 -60.5t190.5 -162.5q67 106 181.5 164.5t242.5 58.5q99 0 186.5 -33.5t157.5 -98.5t112 -169.5t46 -237.5v-43h-793q12 -144 113 -230.5t252 -86.5q166 0 350 104l51 -182q-247 -117 -446 -117 q-143 0 -265.5 61.5t-191.5 168.5q-73 -102 -188.5 -164t-249.5 -62q-152 0 -279 67.5t-203.5 193t-76.5 284.5zM315 512q0 -158 92.5 -254t227.5 -96t229 97t94 253q0 157 -93 253.5t-228 96.5t-228.5 -96.5t-93.5 -253.5zM1214 590h551q-13 124 -90.5 198t-181.5 74 t-183 -74t-96 -198z" />
<glyph unicode="&#x178;" horiz-adv-x="1349" d="M53 1395l240 67l383 -712l379 712l243 -65l-493 -910v-487h-252v487zM332 1761q0 64 41 102t104 38q59 0 99 -38t40 -102q0 -61 -40 -99t-99 -38q-63 0 -104 37.5t-41 99.5zM729 1761q0 64 40 102t99 38q63 0 104.5 -38t41.5 -102q0 -62 -41.5 -99.5t-104.5 -37.5 q-59 0 -99 38t-40 99z" />
<glyph unicode="&#x2c6;" horiz-adv-x="989" d="M63 1214q66 66 130.5 170t60.5 166h252q-4 -63 59.5 -167t128.5 -169h-215q-38 49 -100 170q-54 -114 -98 -170h-218z" />
<glyph unicode="&#x2dc;" horiz-adv-x="1075" d="M29 1341l118 -129q46 49 90.5 66t83.5 8.5t79 -26t83.5 -31t90.5 -14t108 31t127 99.5l-117 127q-47 -50 -91.5 -66.5t-82.5 -7.5t-77 28t-82.5 33.5t-90.5 15.5t-108.5 -31.5t-130.5 -103.5z" />
<glyph unicode="&#x2000;" horiz-adv-x="1034" />
<glyph unicode="&#x2001;" horiz-adv-x="2068" />
<glyph unicode="&#x2002;" horiz-adv-x="1034" />
<glyph unicode="&#x2003;" horiz-adv-x="2068" />
<glyph unicode="&#x2004;" horiz-adv-x="689" />
<glyph unicode="&#x2005;" horiz-adv-x="517" />
<glyph unicode="&#x2006;" horiz-adv-x="344" />
<glyph unicode="&#x2007;" horiz-adv-x="344" />
<glyph unicode="&#x2008;" horiz-adv-x="258" />
<glyph unicode="&#x2009;" horiz-adv-x="413" />
<glyph unicode="&#x200a;" horiz-adv-x="114" />
<glyph unicode="&#x2010;" horiz-adv-x="948" d="M143 471v211h664v-211h-664z" />
<glyph unicode="&#x2011;" horiz-adv-x="948" d="M143 471v211h664v-211h-664z" />
<glyph unicode="&#x2012;" horiz-adv-x="948" d="M143 471v211h664v-211h-664z" />
<glyph unicode="&#x2013;" horiz-adv-x="1157" d="M143 471v211h885v-211h-885z" />
<glyph unicode="&#x2014;" horiz-adv-x="1300" d="M143 471v211h1014v-211h-1014z" />
<glyph unicode="&#x2018;" horiz-adv-x="587" d="M211 895h211v586h-211v-586z" />
<glyph unicode="&#x2019;" horiz-adv-x="587" d="M166 893h211v584h-211v-584z" />
<glyph unicode="&#x201a;" horiz-adv-x="727" d="M262 -45h211v584h-211v-584z" />
<glyph unicode="&#x201c;" horiz-adv-x="1134" d="M303 889h211v584h-211v-584zM662 889h210v584h-210v-584z" />
<glyph unicode="&#x201d;" horiz-adv-x="1134" d="M262 889h211v584h-211v-584zM621 889h210v584h-210v-584z" />
<glyph unicode="&#x201e;" horiz-adv-x="411" d="M123 -45h211v584h-211v-584z" />
<glyph unicode="&#x2022;" horiz-adv-x="1079" d="M211 643q0 150 94 242t234 92q143 0 237 -91.5t94 -242.5q0 -148 -94 -238t-237 -90q-140 0 -234 90.5t-94 237.5z" />
<glyph unicode="&#x2026;" horiz-adv-x="1486" d="M117 119q0 76 47.5 123t118.5 47q72 0 121 -47t49 -123q0 -75 -49 -121.5t-121 -46.5q-71 0 -118.5 46.5t-47.5 121.5zM578 119q0 76 47 123t118 47q73 0 121.5 -46.5t48.5 -123.5q0 -75 -48.5 -121.5t-121.5 -46.5q-70 0 -117.5 46.5t-47.5 121.5zM1036 119q0 76 48 123 t120 47t120 -47t48 -123q0 -75 -48 -121.5t-120 -46.5t-120 46.5t-48 121.5z" />
<glyph unicode="&#x202f;" horiz-adv-x="413" />
<glyph unicode="&#x2039;" horiz-adv-x="1083" d="M143 526l424 375h326l-436 -375l436 -374h-326z" />
<glyph unicode="&#x203a;" horiz-adv-x="1083" d="M190 152l437 374l-437 375h326l424 -375l-424 -374h-326z" />
<glyph unicode="&#x205f;" horiz-adv-x="517" />
<glyph unicode="&#x2122;" horiz-adv-x="3059" d="M59 1210v224h1127v-224h-438v-1210h-252l-2 1210h-435zM1389 0v1434h219l561 -1043l569 1043h174v-1434h-252v920l-450 -848h-123l-449 848v-920h-249z" />
<glyph unicode="&#x25fc;" horiz-adv-x="1044" d="M0 0v1044h1044v-1044h-1044z" />
</font>
</defs>
</svg>
