<?xml version="1.0" encoding="utf-8"?>
<!-- Generator: Adobe Illustrator 25.0.0, SVG Export Plug-In . SVG Version: 6.00 Build 0)  -->
<svg version="1.1" id="Capa_1" xmlns="http://www.w3.org/2000/svg" xmlns:xlink="http://www.w3.org/1999/xlink" x="0px" y="0px"
	 viewBox="0 0 800.3 360" style="enable-background:new 0 0 800.3 360;" xml:space="preserve">
<style type="text/css">
	.st0{fill:#FF1802;}
	.st1{fill:#FFB900;}
	.st2{fill:#FFE500;}
	.st3{fill:#55565B;}
</style>
<g>
	<g>
		<path class="st0" d="M154.5,249c-2.9,0-5.8-0.2-8.6-0.6c-16.4-2.4-30.6-11.5-39.8-24.5c-6.8-9.6-10.8-21.4-10.8-34.1
			c0-12.7,4-24.5,10.8-34.1c9.2-13,23.4-22.1,39.8-24.5c2.8-0.4,5.7-0.6,8.6-0.6c32.7,0,59.2,26.5,59.2,59.3
			c0-46.8-37.9-84.7-84.6-84.7s-84.6,37.9-84.6,84.7c0,46.7,37.9,84.6,84.6,84.6s84.6-37.9,84.6-84.6
			C213.7,222.4,187.2,249,154.5,249"/>
		<path class="st1" d="M154.5,130.4c-2.9,0-5.8,0.2-8.6,0.6c28.6,4.2,50.6,28.8,50.6,58.6s-22,54.4-50.6,58.6
			c2.8,0.4,5.7,0.6,8.6,0.6c32.7,0,59.2-26.5,59.2-59.3C213.7,157,187.2,130.4,154.5,130.4"/>
		<path class="st2" d="M145.8,131.1c-16.4,2.4-30.6,11.5-39.8,24.5c5.1-2.5,10.8-4,16.9-4c21,0,38.1,17.1,38.1,38.1
			s-17.1,38.1-38.1,38.1c-6.1,0-11.8-1.4-16.9-4c9.2,13,23.4,22.1,39.8,24.5c28.6-4.2,50.6-28.8,50.6-58.6S174.5,135.3,145.8,131.1"
			/>
	</g>
	<g>
		<g>
			<g>
				<path class="st0" d="M275.1,104.6c6.8,0,14.4,1.7,21.1,6.1l-1.1,8.4c-5.7-4.2-12.7-6.3-19.7-6.3c-15.7,0-30.1,11.7-30.1,28.7
					c0,16.8,14.3,28.2,30.3,28.2c6.8,0,13.7-1.9,19.4-5.7l1.2,8.3c-6.9,4-14.4,5.6-21.1,5.6c-20.4,0-39-14.3-39-36.3
					C236.1,119.3,254.8,104.6,275.1,104.6z"/>
				<path class="st0" d="M306.4,106.5h8.8v69.8h-8.8V106.5z"/>
				<path class="st0" d="M370.3,176.3c-1.2-3-2-6.6-2.6-11.2c-3.5,8.6-10.1,12.9-18.5,12.9c-9.7,0-19.8-5.7-19.8-23.3v-28.2h8.8
					l0.1,26.5c0.1,12.3,6.5,16.9,13.8,16.9c8.6,0,15.2-6.4,15.2-20.5v-22.8h8.8v33.9c0,6.3,1,11.2,2.7,16h-8.5V176.3z"/>
				<path class="st0" d="M443.5,151.3c0,17.8-11.7,26.5-23.9,26.5c-8.1,0-15.7-4.1-19.7-12.2l-0.1,0.2v10.4h-8.1v-69.8h8.8V136
					c4.1-7.5,11.3-11.3,19-11.3C431.6,124.7,443.5,133.6,443.5,151.3z M434.5,151.3c0-12.4-8.5-19.1-17.1-19.1s-17.1,6.8-17.1,19.1
					s8.5,19.1,17,19.1C425.9,170.5,434.5,163.6,434.5,151.3z"/>
			</g>
			<g>
				<path class="st0" d="M519.3,166.4c-6.6,0-10.3-4-10.8-8.9c10.7-0.7,28.5-3.8,28.5-19.6c0-11.4-7.6-17-19-17
					c-18.6,0-28,15.2-28,31c0,17.8,9.7,26.7,26.6,26.7c12.2,0,20.3-4.3,20.9-4.8l-4.8-12C529.3,164.1,524.5,166.4,519.3,166.4
					 M517,133.7c2.6,0,4.2,1.7,4.2,4.5c0,5.3-7.7,8-13.6,8.4C508,139,511.6,133.7,517,133.7"/>
				<path class="st0" d="M560.5,129L560.5,129v-7.6h-14.8V177h18.2v-31.9c0-14.2,16.1-7.8,17.2-4.9v-15.6
					C579.2,122,567.5,116.9,560.5,129"/>
				<path class="st0" d="M613.7,120.4L613.7,120.4c-8.2,0.2-16.4,1.6-24.2,4.2v76.2h18.3v-23.6c2.6,1,5.3,1.5,8,1.5
					c15,0,24.3-9.8,24.3-29.2S631.2,120.4,613.7,120.4 M612.8,165.1L612.8,165.1c-1.5,0-3.7,0-5.1-1.4v-29c1.4-0.4,2.9-0.6,4.3-0.7
					c8.7,0,9.8,9.1,9.8,16.4C621.8,157.2,620.1,165.1,612.8,165.1"/>
				<path class="st0" d="M731.2,162.8l-0.4,0.2c-2,0.9-4.1,1.4-6.3,1.5c-3.5,0-4.7-2.3-4.7-7.2v-51.5h-18.2v52.9
					c0,10.4,1,20,17.8,20c10.4,0,16.7-5.1,16.7-5.1L731.2,162.8z"/>
				<path class="st0" d="M675.5,166.5L675.5,166.5c-6.6,0-10.3-4-10.8-8.9c10.7-0.7,28.5-3.8,28.5-19.6c0-11.4-7.6-17-19-17
					c-18.6,0-27.9,15.2-27.9,31c0,17.8,9.7,26.7,26.6,26.7c12.2,0,20.3-4.3,20.9-4.8c0,0-4.2-9.2-5.3-11.6
					C685,164.4,680.5,166.5,675.5,166.5 M673.2,133.8c2.6,0,4.2,1.7,4.2,4.5c0,5.3-7.7,8-13.6,8.4
					C664.2,139.1,667.8,133.8,673.2,133.8"/>
				<path class="st0" d="M480.9,135.5l8.2-14.2h-17.2v-15.4h-18.4v51.2c0,10.9,0.7,21.6,19.2,21.6c8.2,0,12.6-2.7,14-3.6l0,0
					l-4.8-10.5l0,0c-1.2,0.3-2.4,0.4-3.6,0.4c-3.7,0-6.5-1.5-6.5-7.5v-22H480.9z"/>
			</g>
		</g>
		<g>
			<g id="z1O2JQ_3_">
				<g>
					<path class="st3" d="M430,249.2c1-3.6,1.9-7.2,2.9-10.8c1.3-5,2.6-10,3.9-15.1c0.8-3,1.6-5.9,2.3-8.9c0.2-0.8,0.5-1.5,0.9-2.2
						c1-2.1,2.8-3.1,5.1-3.3c4.2-0.4,8.4-0.1,12.7-0.2c0,0,0.1,0,0.1,0.1c0.4,1.2,0.4,2.4,0.6,3.6c0.3,1.7,0.5,3.5,0.7,5.2
						c0.2,1.6,0.4,3.1,0.6,4.7c0.2,1.6,0.4,3.1,0.6,4.7c0.1,0.8,0.2,1.7,0.3,2.5c0.3,2.6,0.7,5.1,1,7.7c0.3,2.3,0.5,4.5,0.8,6.8
						c0.3,2.2,0.6,4.4,0.9,6.7c0.2,1.6,0.3,3.2,0.6,4.8c0.4,2.2,0.5,4.5,0.9,6.7c0.3,1.6,0.4,3.3,0.6,5c0.2,1.6,0.4,3.1,0.7,4.7
						c0.1,0.6,0.1,1.2,0.1,1.7c-0.3,0.2-0.6,0.2-0.9,0.2c-3.5,0-7,0-10.4,0c-0.2,0-0.4,0-0.6,0c-0.3,0-0.5-0.2-0.6-0.5
						c-0.2-1.5-0.3-3-0.5-4.5c-0.2-1.6-0.5-3.3-0.7-4.9c-0.2-1.5-0.4-3-0.5-4.5c-0.2-1.7-0.5-3.4-0.7-5.1c-0.2-1.6-0.4-3.1-0.6-4.7
						c-0.2-1.5-0.4-3-0.5-4.5c-0.2-1.8-0.5-3.5-0.7-5.3c-0.2-1.6-0.5-3.3-0.7-4.9c-0.2-1.6-0.4-3.2-0.6-4.8c0-0.1,0-0.3,0-0.4
						c0-0.1-0.1-0.3-0.2-0.3c-0.2-0.1-0.3,0.1-0.3,0.3c-0.8,2.9-1.5,5.9-2.3,8.8c-1.1,4.4-2.3,8.8-3.5,13.1
						c-0.8,3.1-1.6,6.1-2.4,9.2c-1.1,4.1-2.2,8.3-3.2,12.4c-0.1,0.4-0.3,0.6-0.7,0.6c-0.7,0-1.3,0-2,0c-3,0-5.9,0-8.9,0
						c-1.1,0-1.1,0-1.4-1c-1.2-4.5-2.4-9.1-3.5-13.6c-1-4-2.1-7.9-3.1-11.9c-1-3.7-1.9-7.5-2.9-11.2c-0.5-1.9-1-3.8-1.5-5.7
						c-0.1-0.3-0.2-0.6-0.5-1c-0.1,0.8-0.3,1.5-0.4,2.2c-0.3,2.5-0.7,4.9-1,7.4c-0.2,1.6-0.3,3.1-0.6,4.7c-0.2,1.5-0.4,3-0.6,4.4
						c-0.1,0.8-0.2,1.7-0.3,2.5c-0.2,1.9-0.5,3.7-0.7,5.6c-0.2,1.7-0.5,3.3-0.6,5c-0.1,1.6-0.5,3.1-0.7,4.7
						c-0.2,1.5-0.4,3.1-0.5,4.6c-0.1,0.9-0.3,1.7-0.3,2.6c0,0.6-0.2,0.8-0.9,0.8c-3.7,0-7.4,0-11.1,0c-0.8,0-0.8-0.1-0.7-0.8
						c0.1-0.9,0.2-1.8,0.4-2.7c0.2-1.7,0.5-3.5,0.7-5.2c0.2-1.6,0.4-3.1,0.6-4.7c0.2-1.7,0.5-3.4,0.7-5.1c0.2-1.6,0.4-3.1,0.6-4.7
						c0.2-1.5,0.4-3.1,0.6-4.6c0.1-1.1,0.3-2.1,0.4-3.2c0.2-1.5,0.4-3.1,0.6-4.6c0.2-1.6,0.4-3.3,0.7-4.9c0.2-1.6,0.4-3.2,0.7-4.8
						c0.1-0.8,0.2-1.7,0.3-2.5c0.3-2.6,0.6-5.1,1-7.7c0.3-2.3,0.5-4.5,0.8-6.8c0.1-0.6,0.2-1.2,0.2-1.9c0-0.6,0.3-0.8,0.9-0.9
						c0.2,0,0.5,0,0.8,0c3.1,0,6.1,0,9.2,0c1.1,0,2.2,0.2,3.3,0.4c1.8,0.4,3.1,1.5,4,3.1c0.8,1.6,1.2,3.3,1.6,5
						c1.3,4.7,2.5,9.5,3.7,14.2c1.5,5.6,2.9,11.3,4.4,16.9C429.6,248.6,429.7,248.9,430,249.2z"/>
					<path class="st3" d="M566.5,250c-0.6,0-1.1,0-1.5,0c-9.6,0-19.2,0-28.8,0c-1.5,0-1.4-0.2-1.3,1.3c0.1,2.7,0.6,5.3,2,7.6
						c1.5,2.6,3.9,3.9,6.7,4.6c2,0.5,4,0.7,6.1,0.5c2.2-0.2,4.4-0.4,6.6-0.8c1.3-0.2,2.7-0.6,4.1-0.2c1.6,0.4,2.4,1.3,2.7,2.9
						s0.2,3.2,0.2,4.7c0,0.6-0.2,0.9-0.8,1.1c-1.8,0.6-3.6,1.2-5.4,1.6c-3.6,0.7-7.3,1.1-11.1,1c-2.3-0.1-4.6-0.3-6.8-0.8
						c-2.5-0.5-4.8-1.3-7-2.5c-3.3-1.8-6-4.4-7.9-7.6c-1.6-2.8-2.6-5.8-3.2-9c-0.2-1.1-0.4-2.3-0.3-3.5c0.1-0.9-0.2-1.8-0.2-2.7
						c0.2-4.2,0.6-8.3,2.2-12.2c2.1-5.3,5.6-9.3,10.7-11.9c2.4-1.2,5-1.8,7.6-2.2c2-0.3,4-0.3,6-0.2c4.1,0.3,8,1.3,11.4,3.8
						c2.1,1.5,3.7,3.4,4.9,5.6c1.5,2.8,2.4,5.7,2.8,8.9c0.2,1.9,0.5,3.9,0.4,5.9C566.7,247.2,566.5,248.5,566.5,250z M535.3,241.9
						c0.3,0.2,0.6,0.1,0.9,0.1c5.3,0,10.6,0,16,0c0.2,0,0.4,0,0.6,0c0.4,0,0.5-0.2,0.5-0.5c0-0.5-0.2-2-0.2-2.2
						c-0.2-1.4-0.7-2.7-1.4-3.9c-0.8-1.4-2-2.5-3.5-3.1c-3.6-1.5-8.3-0.5-10.8,3.2C536.1,237.4,535.5,239.6,535.3,241.9z"/>
					<path class="st3" d="M389.7,250c-0.7,0-1.1,0-1.6,0c-9.6,0-19.2,0-28.8,0c-1.5,0-1.6,0.1-1.4,1.5c0.3,1.8,0.5,3.6,1.1,5.4
						c0.6,1.5,1.4,2.9,2.5,4c1.4,1.4,3.2,2.3,5.1,2.7c2.1,0.5,4.2,0.7,6.3,0.5c2.2-0.2,4.3-0.5,6.4-0.8c1.3-0.2,2.7-0.5,4.1-0.2
						c1,0.3,1.8,0.7,2.2,1.6c0.3,0.6,0.5,1.3,0.5,2c0,1.4,0,2.8,0,4.3c0,0.3-0.1,0.5-0.4,0.6c-1.9,0.8-3.8,1.3-5.7,1.7
						c-1.9,0.4-3.8,0.6-5.8,0.8c-1.6,0.2-3.3,0.2-4.9,0.2c-3.8-0.1-7.5-0.6-11-1.9c-2.7-1-5.1-2.4-7.2-4.3c-3.1-2.9-5-6.4-6.2-10.4
						c-0.8-2.7-1.2-5.5-1.2-8.4c0-2.2-0.1-4.3,0.3-6.5c0.4-2.3,0.9-4.6,1.8-6.7c1.2-3,2.8-5.7,5.1-8c2.9-2.9,6.3-4.8,10.3-5.8
						c3.2-0.8,6.4-1,9.6-0.7c3.7,0.3,7.3,1.4,10.4,3.5c2.3,1.6,4.1,3.7,5.4,6.1c1.3,2.4,2.1,5.1,2.6,7.8c0.5,2.8,0.5,5.6,0.5,8.4
						C389.8,248.3,389.5,249,389.7,250z M367.3,242L367.3,242c2.8,0,5.5,0,8.3,0c0.8,0,0.8,0,0.8-0.8c0-2-0.5-4-1.5-5.7
						c-1.1-2-2.8-3.2-5-3.7c-1.3-0.3-2.5-0.2-3.8,0c-2.3,0.4-4.1,1.6-5.4,3.5c-1.3,1.8-1.8,3.8-2.2,5.9c-0.1,0.6,0,0.7,0.8,0.8
						C361.9,242,364.6,242,367.3,242z"/>
					<path class="st3" d="M591.6,221.6c4.2,0,8.1,0.5,11.9,1.5c0.2,0.1,0.4,0.1,0.6,0.2c0.9,0.3,0.8,0.3,0.9,1.2
						c0.1,1.5-0.1,3-0.3,4.5c-0.2,1.8-1,3.3-3.6,3.3c-1.4,0-2.8-0.2-4.2-0.4c-2.9-0.4-5.8-0.7-8.7,0.2c-0.8,0.2-1.5,0.5-2.1,1.1
						c-1.8,1.7-1.6,4.5,0.4,6c1.1,0.8,2.3,1.3,3.6,1.7c2.1,0.7,4.2,1.4,6.3,2c2.3,0.7,4.4,1.8,6.3,3.2c2.6,1.9,4.4,4.4,5.2,7.6
						c1,4.2,0.7,8.2-1.2,12c-1.2,2.3-2.9,4-5.1,5.4c-2.9,1.8-6.1,2.6-9.4,3c-1.8,0.2-3.5,0.2-5.3,0.2s-3.6-0.3-5.3-0.4
						c-3-0.3-5.8-1-8.6-2.1c-0.1,0-0.2-0.1-0.4-0.1c-0.3-0.1-0.6-0.3-0.5-0.7c0.1-1.6-0.1-3.2,0.2-4.7c0.4-2.2,1.2-2.9,3.5-3.1
						c1.3-0.1,2.5,0.2,3.7,0.3c1.7,0.2,3.4,0.5,5.1,0.7c1.6,0.2,3.2,0.1,4.7-0.1c1.8-0.2,3.4-0.6,4.7-2c1.5-1.6,1.5-4.3,0-5.9
						c-1-1-2.3-1.5-3.6-2c-1.9-0.7-3.8-1.3-5.7-1.8c-2.6-0.8-5-1.8-7.2-3.4c-3.2-2.5-5.2-5.7-5.5-9.8c-0.1-0.8-0.2-1.6-0.2-2.5
						c0.2-3.2,0.9-6.2,2.9-8.9c1.4-1.9,3.2-3.1,5.3-4.1c2.4-1.1,4.9-1.7,7.5-1.9C589,221.7,590.5,221.6,591.6,221.6z"/>
					<path class="st3" d="M482.9,215.3c-3.3,0.1-7.2-2-8.2-6.3c-0.6-2.7,0-5.6,2.7-7.8c1.7-1.4,3.7-2,5.8-1.9c3.8,0.2,7,2.4,7.8,6.4
						c0.9,4.3-1.7,8.2-5.8,9.4C484.5,215.3,483.7,215.3,482.9,215.3z"/>
					<path class="st3" d="M294.6,199.5c2-0.1,3.8,0.5,5.3,1.8c1.4,1.1,2.3,2.6,2.7,4.4c0.6,2.8-0.2,5.3-2.2,7.3
						c-1.4,1.4-3.1,2.2-5.1,2.3c-2.4,0.2-4.5-0.4-6.4-2c-1.3-1.1-2.2-2.4-2.5-4.1c-0.7-3,0.1-5.5,2.3-7.6
						C290.3,200,292.3,199.4,294.6,199.5z"/>
				</g>
			</g>
			<path class="st3" d="M347.1,222.4c-5,0-10,0-15,0c-0.3,0-0.5,0-0.8,0c-0.8,0-0.8,0-0.8-0.8c-0.1-1.6,0-3.3,0.2-4.9
				c0.1-1.1,0.5-2.2,1.3-3.1c1-1.2,2.4-1.7,3.9-1.9c1.3-0.2,2.6-0.1,3.8,0c0.6,0.1,3.6,0.6,4.6,0.8v-9.9c-2.2-0.6-4.4-1.1-6.7-1.3
				c-1.8-0.1-3.6-0.1-5.4-0.1c-1.4,0-2.8,0.2-4.2,0.5c-2.7,0.6-5.1,1.7-7.2,3.6c-2.8,2.7-4,6.1-4.3,9.8c-0.1,2,0,4,0,6
				c0,1.2,0.1,1.1-1.2,1.1c-1.5,0-3,0-4.5,0c-0.7,0-1.5,0-2.2,0c-0.1,1.2-0.1,10,0,11.3c2.2,0,4.4,0,6.6,0c1.3,0,1.3,0,1.3,1.3
				c0,0.2,0,0.4,0,0.6c0,12.1,0,24.2,0,36.3c0,0.4,0,0.8,0,1.1c0,0.3,0.2,0.5,0.5,0.5s0.6,0,0.9,0c3.7,0,7.4,0,11.1,0
				c1.5,0,1.4,0,1.4-1.5c0-12.1,0-24.2,0-36.3c0-0.4,0-0.8,0-1.3c0-0.7,0.1-0.9,0.9-0.9c1.4,0,2.8,0,4.1-0.1c2.1-0.1,4-0.7,5.7-2
				c1-0.7,1.8-1.6,2.6-2.6c1.6-2.1,3-4.3,4.5-6.7C347.8,222.4,347.5,222.4,347.1,222.4z"/>
			<path class="st3" d="M281.9,262.1c-0.4,0-0.8,0-1.2,0c-7.1,0-14.2,0-21.4,0c-1.9,0-1.6,0.2-1.6-1.6v-45.8v-5.5
				c0-0.4-0.3-0.7-0.7-0.7h-12.8c-0.4,0-0.7,0.3-0.7,0.7v6l0,0c0,17.9,0,35.7,0,53.6l0,0v4c0,0.4,0.3,0.7,0.7,0.7h9.9l0,0
				c4,0,8,0,12,0c1.3,0,2.6-0.1,3.9-0.2c0.6-0.1,1.2-0.3,1.8-0.4c2.5-0.6,4.3-2.3,5.9-4.3c1.4-1.8,2.6-3.8,3.9-5.7
				C281.7,262.7,282,262.3,281.9,262.1z"/>
			<path class="st3" d="M514,202.7h-13.7c-0.2,2.3-0.1,69.9,0.1,70.8c4.5,0,9,0,13.6,0c0-0.2,0.1-0.4,0.1-0.5
				C514,249.6,514,226.2,514,202.7L514,202.7z"/>
			<path class="st3" d="M489.3,222.3l-0.1-0.1c-0.1,0-0.3,0-0.5,0c-4.1,0-8.1,0-12.2,0c-0.2,0-0.3,0-0.5,0c-0.3,0-0.5,0.1-0.5,0.4
				c0,0.3,0,0.6,0,0.9c0,5.7,0,11.3,0,17c0,10.5,0,21,0,31.5c0,0.4-0.1,0.9,0.1,1.3c4.6,0,9.1,0,13.6,0c0-0.2,0.1-0.3,0.1-0.4
				C489.3,256.1,489.3,239.2,489.3,222.3L489.3,222.3z"/>
			<path class="st3" d="M301.4,225.6L301.4,225.6v-2.5c0-0.4-0.3-0.7-0.7-0.7h-12.5c-0.4,0-0.7,0.3-0.7,0.7v2.5l0,0c0,14,0,28,0,42
				l0,0v5.3c0,0.4,0.3,0.7,0.7,0.7h12.5c0.4,0,0.7-0.3,0.7-0.7v-5.3C301.4,253.6,301.4,239.6,301.4,225.6z"/>
		</g>
	</g>
</g>
</svg>
